<?xml version="1.0" encoding="UTF-8" standalone="no"?>
<!DOCTYPE svg PUBLIC "-//W3C//DTD SVG 20010904//EN"
              "http://www.w3.org/TR/2001/REC-SVG-20010904/DTD/svg10.dtd">

<svg xmlns="http://www.w3.org/2000/svg"
     width="1.42222in" height="1.42222in"
     viewBox="0 0 128 128">
  <path id="Importierter Pfad"
        fill="none" stroke="black" stroke-width="1"
        d="M 64.12,46.06
           C 76.27,46.06 87.91,46.90 97.78,48.48
             97.94,48.51 98.10,48.52 98.25,48.52
             99.27,48.52 100.24,47.99 100.78,47.10
             100.78,47.10 100.88,46.94 100.88,46.94
             100.89,46.92 100.91,46.89 100.92,46.87
             100.95,47.16 101.02,47.45 101.14,47.72
             101.52,48.63 102.32,49.29 103.29,49.49
             107.70,50.40 111.47,51.45 114.47,52.61
             114.82,52.74 115.18,52.81 115.54,52.81
             116.06,52.81 116.57,52.67 117.03,52.41
             117.20,52.31 117.37,52.19 117.51,52.06
             117.44,53.13 117.96,54.16 118.87,54.75
             119.18,54.95 119.42,55.12 119.62,55.26
             120.78,56.14 121.02,56.73 121.01,56.88
             121.00,57.11 120.55,57.95 118.67,59.11
             118.04,59.50 117.58,60.11 117.37,60.82
             117.37,60.82 104.09,107.00 104.09,107.00
             104.07,107.07 104.05,107.13 104.04,107.20
             102.12,116.15 89.75,120.69 67.27,120.69
             66.71,120.69 66.15,120.69 65.58,120.68
             40.01,120.43 31.27,118.32 26.55,105.69
             26.55,105.69 12.79,61.77 12.79,61.77
             12.54,60.98 11.98,60.33 11.24,59.98
             11.22,59.97 11.21,59.96 11.19,59.96
             10.18,59.48 9.34,59.02 8.72,58.60
             8.03,58.13 7.51,57.67 7.18,57.24
             7.05,57.07 6.83,56.76 6.82,56.51
             6.82,56.48 6.83,56.45 6.84,56.42
             6.87,56.30 6.93,56.16 7.04,56.01
             7.31,55.63 8.04,54.83 9.96,53.81
             10.93,53.29 11.53,52.28 11.54,51.20
             11.69,51.34 11.85,51.47 12.02,51.58
             12.50,51.88 13.05,52.04 13.60,52.04
             13.92,52.04 14.25,51.99 14.56,51.88
             17.42,50.90 20.89,50.02 24.86,49.26
             25.85,49.07 26.67,48.40 27.05,47.47
             27.17,47.17 27.25,46.85 27.27,46.53
             27.37,46.68 27.46,46.83 27.56,46.98
             28.11,47.84 29.06,48.34 30.06,48.34
             30.21,48.34 30.35,48.33 30.50,48.31
             40.28,46.85 51.89,46.08 64.08,46.08
             64.08,46.08 64.12,46.08 64.12,46.08M 114.61,30.00
           C 114.45,30.00 114.29,30.01 114.13,30.02
             113.61,30.06 113.08,30.17 112.55,30.34
             110.82,30.89 109.05,32.10 107.28,33.75
             105.87,35.07 104.48,36.66 103.11,38.42
             102.35,39.40 101.60,40.44 100.86,41.50
             100.34,42.26 99.82,43.03 99.31,43.82
             98.95,44.39 98.59,44.96 98.24,45.54
             88.63,44.00 76.90,43.08 64.11,43.08
             64.11,43.08 64.05,43.08 64.05,43.08
             51.30,43.08 39.64,43.91 30.03,45.34
             29.56,44.61 29.08,43.89 28.59,43.18
             27.86,42.11 27.10,41.08 26.34,40.10
             24.98,38.34 23.58,36.74 22.17,35.43
             20.40,33.77 18.63,32.56 16.90,32.02
             16.37,31.85 15.84,31.74 15.32,31.70
             15.16,31.69 15.00,31.68 14.84,31.68
             14.15,31.68 13.49,31.79 12.87,32.00
             11.86,32.34 10.96,32.94 10.22,33.82
             9.39,34.80 8.79,36.11 8.40,37.77
             7.95,39.68 7.79,42.06 7.91,44.92
             7.97,46.30 8.09,47.78 8.28,49.39
             8.35,50.00 8.43,50.59 8.52,51.18
             6.68,52.16 5.33,53.20 4.57,54.30
             4.22,54.80 3.99,55.31 3.89,55.84
             3.87,56.00 3.84,56.20 3.83,56.39
             3.80,57.30 4.14,58.20 4.82,59.06
             5.35,59.74 6.09,60.40 7.02,61.04
             7.84,61.60 8.82,62.13 9.94,62.66
             9.94,62.66 9.95,62.66 9.95,62.66
             9.95,62.66 23.74,106.65 23.74,106.65
             29.31,121.66 40.48,123.41 65.55,123.66
             66.13,123.67 66.70,123.67 67.27,123.67
             91.27,123.67 104.65,118.52 106.95,107.82
             106.95,107.82 120.25,61.63 120.25,61.63
             122.57,60.20 123.90,58.66 124.00,57.06
             124.09,55.62 123.19,54.21 121.44,52.88
             121.15,52.66 120.84,52.45 120.50,52.24
             120.64,51.46 120.77,50.63 120.90,49.75
             121.00,49.09 121.09,48.40 121.17,47.71
             121.36,46.10 121.48,44.62 121.54,43.24
             121.66,40.39 121.50,38.01 121.05,36.09
             120.66,34.44 120.05,33.12 119.23,32.14
             118.49,31.26 117.59,30.66 116.58,30.32
             115.96,30.11 115.30,30.00 114.61,30.00
             114.61,30.00 114.61,30.00 114.61,30.00 Z
           M 115.55,49.82
           C 112.40,48.61 108.47,47.51 103.90,46.57
             104.11,46.25 104.32,45.93 104.52,45.62
             104.72,45.32 104.91,45.05 105.11,44.76
             105.79,43.77 106.46,42.83 107.10,41.98
             108.94,39.54 110.60,37.75 111.97,36.63
             112.06,36.56 112.14,36.48 112.23,36.42
             112.40,36.29 112.56,36.17 112.72,36.06
             113.41,35.59 114.01,35.31 114.50,35.28
             114.50,35.28 114.62,35.28 114.62,35.28
             114.93,35.28 115.05,35.38 115.18,35.54
             115.26,35.63 115.32,35.75 115.38,35.86
             115.85,36.63 116.11,37.90 116.23,39.50
             116.33,40.87 116.30,42.49 116.18,44.23
             116.18,44.23 116.18,44.25 116.18,44.25
             116.13,45.02 116.05,45.82 115.97,46.63
             115.86,47.66 115.71,48.74 115.55,49.82
             115.55,49.82 115.55,49.82 115.55,49.82 Z
           M 13.59,49.04
           C 13.56,48.79 13.52,48.53 13.50,48.29
             13.41,47.48 13.34,46.68 13.29,45.91
             13.29,45.91 13.29,45.89 13.29,45.89
             13.17,44.15 13.14,42.53 13.24,41.16
             13.35,39.56 13.62,38.28 14.09,37.52
             14.16,37.41 14.22,37.29 14.29,37.20
             14.42,37.04 14.53,36.94 14.85,36.94
             14.85,36.94 14.97,36.94 14.97,36.94
             15.46,36.97 16.07,37.26 16.75,37.72
             16.91,37.83 17.07,37.95 17.24,38.08
             17.32,38.14 17.41,38.22 17.50,38.29
             18.88,39.41 20.53,41.20 22.37,43.64
             22.99,44.45 23.63,45.36 24.28,46.30
             20.18,47.11 16.58,48.02 13.59,49.04
             13.59,49.04 13.59,49.04 13.59,49.04 Z
           M 38.72,67.15
           C 40.04,66.54 40.63,64.98 40.02,63.66
             39.34,62.18 38.32,60.01 37.05,57.49
             37.04,60.92 36.59,64.59 37.72,67.38
             38.05,67.36 38.40,67.30 38.72,67.15 Z
           M 37.05,57.49
           C 35.95,55.31 34.65,52.87 33.23,50.38
             33.17,50.80 33.07,51.20 32.89,51.57
             32.46,54.57 32.39,57.91 32.94,61.03
             33.71,62.57 34.47,64.18 35.24,65.84
             35.68,66.81 36.64,67.38 37.64,67.38
             37.67,67.38 37.70,67.37 37.73,67.37
             36.59,64.59 37.04,60.92 37.05,57.49
             37.05,57.49 37.05,57.49 37.05,57.49 Z
           M 30.29,45.53
           C 29.79,44.74 29.27,43.97 28.75,43.21
             28.72,43.19 28.70,43.16 28.67,43.14
             28.70,43.16 28.72,43.19 28.75,43.21
             28.02,42.14 27.27,41.11 26.50,40.13
             26.31,42.27 25.68,44.45 25.26,46.56
             25.97,46.59 26.57,46.36 26.57,45.25
             26.57,46.37 25.98,46.59 25.26,46.56
             25.21,46.81 25.15,47.07 25.11,47.32
             25.56,48.00 26.03,48.72 26.49,49.46
             26.49,49.46 28.68,49.46 28.68,49.46
             28.68,49.46 26.49,49.46 26.49,49.46
             27.33,50.80 28.19,52.22 29.07,53.75
             29.83,51.03 31.05,48.02 30.29,45.53 Z
           M 22.33,35.45
           C 22.28,38.26 22.03,41.06 22.52,43.68
             23.16,44.53 23.83,45.47 24.51,46.46
             24.76,46.51 25.01,46.54 25.25,46.55
             25.67,44.44 26.30,42.26 26.49,40.12
             25.13,38.36 23.74,36.77 22.33,35.45
             22.33,35.45 22.33,35.45 22.33,35.45 Z
           M 25.10,47.32
           C 25.14,47.07 25.20,46.81 25.25,46.56
             25.01,46.55 24.76,46.51 24.51,46.47
             24.71,46.75 24.90,47.02 25.10,47.32 Z
           M 22.33,35.45
           C 20.57,33.79 18.79,32.59 17.07,32.04
             16.61,33.84 16.55,35.83 16.90,37.76
             17.06,37.87 17.22,37.99 17.39,38.12
             17.55,38.12 17.71,38.12 17.86,38.11
             17.86,38.11 18.11,37.86 18.11,37.86
             18.11,37.86 17.86,38.11 17.86,38.11
             18.82,38.07 19.74,37.77 20.22,36.80
             19.74,37.76 18.82,38.06 17.86,38.11
             17.86,38.11 17.64,38.33 17.64,38.33
             19.02,39.45 20.67,41.24 22.51,43.68
             22.04,41.06 22.29,38.26 22.33,35.45
             22.33,35.45 22.33,35.45 22.33,35.45 Z
           M 17.40,38.12
           C 17.48,38.18 17.57,38.26 17.66,38.33
             17.66,38.33 17.88,38.11 17.88,38.11
             17.71,38.13 17.55,38.13 17.40,38.12 Z
           M 14.24,37.55
           C 14.31,37.44 14.37,37.32 14.44,37.23
             14.59,37.05 14.71,36.95 15.12,36.98
             15.61,37.01 16.21,37.30 16.90,37.76
             16.55,35.83 16.60,33.83 17.07,32.04
             16.54,31.87 16.02,31.76 15.50,31.72
             14.63,31.66 13.81,31.77 13.06,32.02
             12.01,34.36 12.25,36.50 14.24,37.55
             14.24,37.55 14.24,37.55 14.24,37.55 Z
           M 13.39,41.19
           C 13.50,39.59 13.77,38.32 14.24,37.55
             12.25,36.50 12.01,34.36 13.06,32.02
             12.05,32.36 11.15,32.96 10.42,33.84
             9.60,34.82 8.99,36.13 8.60,37.79
             8.99,38.90 9.69,39.97 10.75,41.03
             11.72,41.35 12.59,41.38 13.39,41.19 Z
           M 13.39,41.19
           C 12.59,41.37 11.71,41.35 10.74,41.02
             9.67,39.95 8.97,38.88 8.59,37.78
             8.14,39.69 7.98,42.07 8.10,44.92
             9.68,46.17 11.65,46.43 13.44,45.93
             13.44,45.93 13.44,45.91 13.44,45.91
             13.26,45.68 13.06,45.45 12.85,45.24
             13.06,45.45 13.26,45.68 13.44,45.91
             13.33,44.18 13.30,42.56 13.39,41.19
             13.39,41.19 13.39,41.19 13.39,41.19 Z
           M 8.74,51.45
           C 10.55,51.22 12.25,49.87 13.65,48.32
             13.56,47.51 13.49,46.71 13.44,45.94
             11.65,46.44 9.68,46.18 8.10,44.93
             8.16,46.31 8.28,47.79 8.47,49.40
             8.55,50.10 8.64,50.78 8.74,51.45
             8.74,51.45 8.74,51.45 8.74,51.45 Z
           M 15.41,58.32
           C 15.11,57.11 14.85,55.86 14.61,54.59
             13.85,56.80 12.36,58.71 10.32,59.64
             10.70,61.01 12.10,61.85 13.49,61.51
             14.90,61.16 15.76,59.73 15.41,58.32 Z
           M 14.61,54.59
           C 14.43,53.65 14.26,52.71 14.12,51.77
             13.09,53.53 11.40,54.94 9.45,55.65
             9.89,57.93 10.27,59.47 10.29,59.58
             10.30,59.60 10.31,59.62 10.31,59.64
             12.37,58.71 13.85,56.80 14.61,54.59
             14.61,54.59 14.61,54.59 14.61,54.59 Z
           M 14.12,51.77
           C 13.94,50.60 13.78,49.44 13.66,48.31
             12.25,49.86 10.56,51.21 8.75,51.44
             8.97,52.99 9.23,54.42 9.46,55.64
             11.39,54.94 13.09,53.53 14.12,51.77
             14.12,51.77 14.12,51.77 14.12,51.77 Z
           M 32.88,51.57
           C 33.06,51.20 33.16,50.80 33.22,50.38
             32.29,48.76 31.31,47.12 30.28,45.52
             31.04,48.02 29.82,51.02 29.05,53.75
             30.33,55.99 31.63,58.42 32.93,61.03
             32.39,57.91 32.46,54.57 32.88,51.57
             32.88,51.57 32.88,51.57 32.88,51.57 Z
           M 7.72,53.65
           C 7.72,53.65 6.35,53.75 5.86,54.60
             5.38,55.44 6.09,55.57 7.09,54.87
             8.09,54.16 8.50,53.48 7.72,53.65
             7.72,53.65 7.72,53.65 7.72,53.65 Z
           M 8.95,56.00
           C 8.95,56.00 7.58,55.98 7.00,56.78
             6.43,57.59 7.12,57.77 8.19,57.16
             9.25,56.54 9.74,55.90 8.95,56.00 Z
           M 11.47,57.62
           C 11.47,57.62 10.14,57.32 9.39,58.11
             8.65,58.90 9.28,59.25 10.46,58.76
             11.64,58.29 12.26,57.67 11.47,57.62 Z
           M 110.48,59.29
           C 110.48,59.29 108.62,59.08 107.20,61.18
             105.78,63.29 107.96,63.48 110.48,59.29 Z
           M 85.24,62.79
           C 85.24,62.79 81.85,62.44 79.20,64.99
             76.56,67.53 80.50,67.86 85.24,62.79 Z
           M 104.21,60.65
           C 104.21,60.65 100.78,60.54 98.34,63.25
             95.90,65.97 99.89,66.02 104.21,60.65 Z
           M 95.20,61.97
           C 95.20,61.97 91.78,61.86 89.34,64.57
             86.92,67.28 90.90,67.34 95.20,61.97
             95.20,61.97 95.20,61.97 95.20,61.97 Z
           M 67.53,63.54
           C 67.53,63.54 64.15,63.21 61.54,65.77
             58.93,68.33 62.87,68.64 67.53,63.54 Z
           M 76.13,63.33
           C 76.13,63.33 72.75,63.00 70.13,65.57
             67.51,68.13 71.46,68.44 76.13,63.33
             76.13,63.33 76.13,63.33 76.13,63.33 Z
           M 23.95,61.31
           C 23.95,61.31 22.21,61.09 20.83,62.45
             19.44,63.82 21.47,64.04 23.95,61.31 Z
           M 15.67,59.22
           C 15.67,59.22 13.93,59.00 12.55,60.36
             11.18,61.73 13.20,61.95 15.67,59.22
             15.67,59.22 15.67,59.22 15.67,59.22 Z
           M 19.42,60.30
           C 19.42,60.30 17.68,60.08 16.30,61.44
             14.93,62.81 16.96,63.04 19.42,60.30 Z
           M 37.02,62.66
           C 37.02,62.66 34.75,62.36 32.94,64.15
             31.13,65.94 33.78,66.23 37.02,62.66 Z
           M 30.56,61.69
           C 30.56,61.69 28.29,61.39 26.48,63.18
             24.67,64.96 27.32,65.26 30.56,61.69
             30.56,61.69 30.56,61.69 30.56,61.69 Z
           M 43.55,63.06
           C 43.55,63.06 41.20,62.77 39.33,64.47
             37.46,66.17 40.21,66.46 43.55,63.06 Z
           M 50.93,63.40
           C 50.93,63.40 48.13,63.12 45.97,65.25
             43.82,67.38 47.09,67.64 50.93,63.40 Z
           M 58.99,63.30
           C 58.99,63.30 55.62,62.97 53.02,65.53
             50.42,68.08 54.36,68.39 58.99,63.30
             58.99,63.30 58.99,63.30 58.99,63.30 Z
           M 7.07,59.07
           C 6.12,59.55 5.41,59.50 4.98,59.08
             5.51,59.76 6.24,60.42 7.18,61.06
             9.20,61.70 10.29,60.90 11.54,59.92
             8.50,60.82 7.07,59.07 7.07,59.07
             7.07,59.07 7.07,59.07 7.07,59.07 Z
           M 13.67,58.16
           C 13.67,58.16 13.97,58.30 13.97,58.30
             14.85,57.85 15.51,57.70 15.89,57.65
             14.80,57.29 13.85,56.91 13.05,56.52
             13.05,56.52 13.02,56.71 13.02,56.71
             13.02,56.71 11.37,56.06 9.51,57.28
             12.06,56.22 13.67,58.16 13.67,58.16
             13.67,58.16 13.67,58.16 13.67,58.16 Z
           M 4.61,57.02
           C 4.29,56.95 4.09,56.62 4.07,55.84
             4.04,56.03 4.00,56.22 4.00,56.41
             3.97,57.32 4.31,58.22 4.98,59.08
             5.56,59.65 6.66,59.55 8.19,58.34
             5.99,59.36 4.61,57.02 4.61,57.02 Z
           M 123.99,57.08
           C 124.08,55.64 123.18,54.23 121.43,52.90
             117.26,51.49 117.30,53.65 117.30,53.65
             117.29,53.86 117.23,54.07 117.12,54.28
             117.12,54.28 118.47,53.34 119.81,55.12
             121.05,56.78 121.91,60.28 119.29,62.20
             122.21,60.62 123.88,58.89 123.99,57.08
             123.99,57.08 123.99,57.08 123.99,57.08 Z
           M 120.93,55.43
           C 120.38,54.27 119.22,53.05 120.14,53.46
             120.14,53.46 123.05,54.45 122.93,56.23
             122.81,58.02 121.60,56.84 120.93,55.43
             120.93,55.43 120.93,55.43 120.93,55.43 Z
           M 116.59,57.34
           C 116.43,55.48 116.61,54.99 116.61,54.99
             116.14,55.47 115.45,55.93 114.55,56.38
             114.54,56.40 113.03,58.10 111.31,61.54
             109.75,64.66 107.35,66.35 105.57,66.76
             108.53,66.12 111.19,65.40 113.52,64.62
             116.89,63.55 116.71,58.73 116.59,57.34
             116.59,57.34 116.59,57.34 116.59,57.34 Z
           M 111.81,62.48
           C 112.68,60.38 114.11,58.61 114.11,58.61
             114.11,58.61 115.54,56.37 115.53,59.31
             115.52,62.86 110.94,64.59 111.81,62.48
             111.81,62.48 111.81,62.48 111.81,62.48 Z
           M 104.17,63.16
           C 99.80,67.40 93.25,66.54 93.25,66.54
             91.36,68.09 89.22,69.31 85.83,69.56
             89.93,69.22 93.81,68.77 97.40,68.23
             97.40,68.23 97.40,68.22 97.40,68.22
             100.99,67.04 102.17,65.56 104.17,63.16
             104.17,63.16 104.17,63.16 104.17,63.16 Z
           M 74.10,68.31
           C 72.83,69.26 71.38,70.01 69.37,70.32
             72.47,70.29 75.50,70.19 78.45,70.05
             81.62,69.49 83.54,67.95 85.46,66.20
             79.72,69.76 74.10,68.31 74.10,68.31
             74.10,68.31 74.10,68.31 74.10,68.31 Z
           M 57.08,68.06
           C 55.90,68.97 54.56,69.71 52.67,70.01
             55.11,70.12 57.61,70.21 60.19,70.27
             60.19,70.27 60.20,70.20 60.20,70.20
             63.67,69.96 65.50,68.47 67.34,66.75
             62.30,69.83 57.30,68.13 57.08,68.06
             57.08,68.06 57.08,68.06 57.08,68.06 Z
           M 41.61,67.59
           C 40.66,68.22 39.56,68.71 38.08,68.91
             40.38,69.15 42.78,69.37 45.27,69.55
             47.52,69.07 48.91,67.91 50.31,66.61
             49.82,66.71 49.35,66.84 48.92,67.05
             45.32,68.77 42.56,67.97 41.61,67.59
             41.61,67.59 41.61,67.59 41.61,67.59 Z
           M 28.52,66.04
           C 28.52,66.04 28.40,65.95 28.40,65.95
             27.36,66.45 26.14,66.79 24.49,66.88
             24.49,66.88 24.48,66.92 24.48,66.92
             26.76,67.36 29.22,67.77 31.82,68.14
             34.37,67.83 35.82,66.64 37.31,65.30
             36.92,65.39 36.54,65.51 36.19,65.68
             31.71,67.82 28.52,66.04 28.52,66.04
             28.52,66.04 28.52,66.04 28.52,66.04 Z
           M 17.87,63.95
           C 17.77,63.93 17.68,63.91 17.58,63.89
             16.55,64.43 15.41,64.62 13.77,64.07
             13.77,64.07 13.76,64.14 13.76,64.14
             15.40,64.71 17.22,65.25 19.23,65.75
             21.44,65.64 22.56,65.17 23.53,64.47
             20.44,65.62 17.87,63.95 17.87,63.95
             17.87,63.95 17.87,63.95 17.87,63.95 Z
           M 8.47,61.29
           C 8.08,61.29 7.66,61.21 7.18,61.07
             8.00,61.63 8.98,62.16 10.09,62.69
             10.09,62.69 10.09,62.67 10.09,62.67
             12.69,63.55 13.94,62.36 15.58,61.08
             11.91,63.54 8.48,61.30 8.47,61.29
             8.47,61.29 8.47,61.29 8.47,61.29 Z
           M 109.67,58.16
           C 109.66,58.19 109.65,58.21 109.65,58.21
             109.62,58.26 109.36,58.43 109.01,58.65
             109.03,58.64 114.55,56.40 111.65,60.51
             108.74,64.62 102.66,65.38 102.66,65.38
             102.66,65.38 104.69,62.57 104.69,62.57
             102.35,65.34 101.29,66.96 97.42,68.24
             97.42,68.24 97.42,68.25 97.42,68.25
             100.33,67.82 103.06,67.32 105.58,66.77
             107.36,66.36 109.76,64.67 111.32,61.55
             113.04,58.11 114.55,56.41 114.56,56.39
             113.30,57.01 111.66,57.61 109.67,58.16 Z
           M 83.69,67.70
           C 82.27,68.79 80.66,69.66 78.45,70.05
             80.98,69.93 83.45,69.76 85.83,69.56
             90.12,69.23 92.42,67.38 94.73,65.24
             89.18,68.70 84.59,67.91 83.69,67.70 Z
           M 65.68,68.17
           C 64.28,69.23 62.65,70.03 60.19,70.20
             60.19,70.20 60.18,70.27 60.18,70.27
             61.09,70.29 62.00,70.31 62.92,70.32
             65.10,70.35 67.25,70.36 69.37,70.33
             72.09,69.90 73.80,68.67 75.41,67.23
             75.38,67.24 75.35,67.25 75.32,67.27
             70.91,69.34 65.96,68.23 65.68,68.17
             65.68,68.17 65.68,68.17 65.68,68.17 Z
           M 49.25,68.01
           C 49.25,68.01 48.96,67.79 48.96,67.79
             47.95,68.58 46.81,69.23 45.28,69.55
             47.66,69.73 50.13,69.88 52.68,70.00
             55.07,69.61 56.59,68.54 58.01,67.27
             57.64,67.36 57.28,67.47 56.94,67.63
             52.44,69.79 49.25,68.01 49.25,68.01 Z
           M 35.44,66.80
           C 34.46,67.45 33.33,67.96 31.82,68.14
             33.82,68.42 35.91,68.68 38.08,68.91
             40.85,68.54 42.31,67.15 43.89,65.66
             43.35,65.76 42.83,65.90 42.35,66.13
             39.16,67.66 36.63,67.19 35.44,66.80 Z
           M 22.89,64.93
           C 22.89,64.93 22.85,64.90 22.85,64.90
             22.01,65.36 20.95,65.66 19.22,65.75
             20.86,66.16 22.61,66.56 24.48,66.92
             24.48,66.92 24.49,66.88 24.49,66.88
             27.39,66.74 28.97,65.80 30.55,64.57
             26.08,66.70 22.89,64.93 22.89,64.93
             22.89,64.93 22.89,64.93 22.89,64.93 Z
           M 119.81,55.13
           C 118.48,53.35 117.13,54.29 117.12,54.29
             117.00,54.53 116.83,54.77 116.61,55.00
             116.61,55.00 116.43,55.49 116.59,57.35
             116.71,58.74 116.89,63.56 113.51,64.63
             115.77,63.88 117.71,63.06 119.29,62.21
             121.91,60.29 121.05,56.78 119.81,55.13
             119.81,55.13 119.81,55.13 119.81,55.13 Z
           M 118.20,61.60
           C 117.23,61.73 117.39,58.51 117.63,57.44
             117.63,57.44 117.75,54.69 119.38,56.75
             121.00,58.82 119.16,61.47 118.20,61.60
             118.20,61.60 118.20,61.60 118.20,61.60 Z
           M 12.89,62.79
           C 12.12,63.03 11.24,63.05 10.10,62.66
             10.10,62.66 10.10,62.68 10.10,62.68
             11.18,63.19 12.40,63.68 13.75,64.14
             13.75,64.14 13.76,64.07 13.76,64.07
             16.55,65.02 17.93,63.78 19.69,62.40
             16.67,64.41 13.81,63.26 12.89,62.79 Z
           M 123.99,57.08
           C 124.08,55.64 123.18,54.23 121.43,52.90
             117.26,51.49 117.30,53.65 117.30,53.65
             117.29,53.86 117.23,54.07 117.12,54.28
             117.12,54.28 118.47,53.34 119.81,55.12
             121.05,56.78 121.91,60.28 119.29,62.20
             122.21,60.62 123.88,58.89 123.99,57.08
             123.99,57.08 123.99,57.08 123.99,57.08 Z
           M 119.81,55.13
           C 118.48,53.35 117.13,54.29 117.12,54.29
             117.00,54.53 116.83,54.77 116.61,55.00
             116.61,55.00 116.43,55.49 116.59,57.35
             116.71,58.74 116.89,63.56 113.51,64.63
             115.77,63.88 117.71,63.06 119.29,62.21
             121.91,60.29 121.05,56.78 119.81,55.13
             119.81,55.13 119.81,55.13 119.81,55.13 Z
           M 116.59,57.34
           C 116.43,55.48 116.61,54.99 116.61,54.99
             116.14,55.47 115.45,55.93 114.55,56.38
             114.54,56.40 113.03,58.10 111.31,61.54
             109.75,64.66 107.35,66.35 105.57,66.76
             108.53,66.12 111.19,65.40 113.52,64.62
             116.89,63.55 116.71,58.73 116.59,57.34
             116.59,57.34 116.59,57.34 116.59,57.34 Z
           M 64.15,43.11
           C 33.61,43.11 9.27,47.86 4.76,54.31
             7.80,51.37 10.27,53.26 10.27,53.26
             10.27,53.26 10.28,53.26 10.28,53.26
             11.51,48.51 35.06,44.73 63.94,44.73
             93.66,44.73 117.62,48.72 117.31,53.65
             117.31,53.65 117.27,51.49 121.44,52.90
             114.06,47.31 91.56,43.10 64.15,43.11
             64.15,43.11 64.15,43.11 64.15,43.11 Z
           M 80.57,63.00
           C 81.70,62.35 82.67,62.09 83.03,61.93
             80.02,62.13 76.89,62.29 73.65,62.39
             73.22,62.54 72.47,62.79 71.62,63.29
             67.24,65.86 66.02,69.80 60.20,70.20
             60.20,70.20 60.19,70.27 60.19,70.27
             61.10,70.29 62.01,70.31 62.93,70.32
             65.11,70.35 67.26,70.36 69.38,70.33
             74.70,69.48 76.14,65.60 80.57,63.00 Z
           M 71.62,63.29
           C 72.47,62.79 73.22,62.55 73.65,62.39
             70.72,62.49 67.69,62.54 64.61,62.55
             64.18,62.70 63.49,62.94 62.72,63.40
             58.74,65.74 57.45,69.24 52.67,70.01
             55.11,70.12 57.61,70.21 60.19,70.27
             60.19,70.27 60.20,70.20 60.20,70.20
             66.02,69.80 67.24,65.86 71.62,63.29
             71.62,63.29 71.62,63.29 71.62,63.29 Z
           M 90.76,61.92
           C 91.37,61.57 91.94,61.32 92.41,61.13
             89.47,61.44 86.32,61.71 83.03,61.93
             82.67,62.09 81.70,62.34 80.57,63.00
             76.14,65.60 74.69,69.48 69.37,70.33
             72.47,70.30 75.50,70.20 78.45,70.06
             84.21,69.03 85.87,64.78 90.76,61.92
             90.76,61.92 90.76,61.92 90.76,61.92 Z
           M 62.72,63.40
           C 63.49,62.95 64.18,62.70 64.61,62.55
             64.12,62.55 63.64,62.56 63.14,62.56
             60.85,62.56 58.60,62.53 56.39,62.48
             56.39,62.48 56.38,62.49 56.38,62.49
             56.28,62.62 55.32,62.80 54.20,63.46
             50.61,65.58 49.36,68.69 45.27,69.56
             47.65,69.74 50.12,69.89 52.67,70.01
             57.45,69.24 58.74,65.74 62.72,63.40
             62.72,63.40 62.72,63.40 62.72,63.40 Z
           M 106.58,60.43
           C 107.53,59.42 109.56,58.36 109.65,58.20
             109.65,58.20 109.66,58.18 109.67,58.15
             107.78,58.68 105.59,59.17 103.12,59.62
             102.97,59.80 101.66,60.05 100.10,60.95
             94.62,64.15 93.04,69.02 85.84,69.56
             89.94,69.22 93.82,68.77 97.41,68.23
             97.41,68.23 97.41,68.22 97.41,68.22
             102.19,66.65 102.69,64.54 106.58,60.43 Z
           M 54.20,63.46
           C 55.32,62.80 56.28,62.62 56.38,62.49
             56.38,62.49 56.39,62.48 56.39,62.48
             53.89,62.42 51.45,62.34 49.08,62.24
             48.83,62.36 48.03,62.55 47.11,63.10
             43.57,65.19 42.48,68.34 38.08,68.92
             40.38,69.16 42.78,69.38 45.27,69.56
             49.36,68.69 50.61,65.57 54.20,63.46
             54.20,63.46 54.20,63.46 54.20,63.46 Z
           M 111.30,61.55
           C 113.02,58.11 114.53,56.41 114.54,56.39
             113.30,57.01 111.65,57.61 109.66,58.16
             109.65,58.19 109.64,58.21 109.64,58.21
             109.55,58.37 107.53,59.43 106.57,60.44
             102.68,64.56 102.18,66.67 97.40,68.24
             97.40,68.24 97.40,68.25 97.40,68.25
             100.31,67.82 103.04,67.32 105.56,66.77
             107.35,66.36 109.74,64.67 111.30,61.55 Z
           M 100.10,60.96
           C 101.65,60.06 102.97,59.81 103.12,59.63
             99.96,60.20 96.37,60.71 92.42,61.13
             91.95,61.31 91.38,61.56 90.77,61.92
             85.87,64.78 84.21,69.04 78.45,70.06
             80.98,69.94 83.45,69.77 85.83,69.57
             93.04,69.03 94.61,64.15 100.10,60.96
             100.10,60.96 100.10,60.96 100.10,60.96 Z
           M 40.90,62.50
           C 41.51,62.15 42.06,61.97 42.44,61.84
             40.31,61.68 38.26,61.51 36.28,61.31
             35.83,61.35 34.77,61.39 33.69,62.13
             30.39,64.39 29.14,66.65 24.49,66.88
             24.49,66.88 24.48,66.92 24.48,66.92
             26.76,67.36 29.22,67.77 31.82,68.14
             36.16,67.62 37.34,64.51 40.90,62.50 Z
           M 16.32,60.52
           C 18.20,59.19 19.53,58.89 20.14,58.82
             18.55,58.45 17.12,58.05 15.88,57.64
             15.32,57.71 14.18,57.99 12.57,59.13
             10.79,60.40 9.72,61.86 7.18,61.06
             8.00,61.62 8.98,62.15 10.09,62.68
             10.09,62.68 10.09,62.66 10.09,62.66
             13.06,63.67 14.27,61.98 16.32,60.52
             16.32,60.52 16.32,60.52 16.32,60.52 Z
           M 12.57,59.14
           C 14.18,58.00 15.32,57.72 15.88,57.65
             14.79,57.29 13.84,56.91 13.04,56.52
             13.04,56.52 13.01,56.71 13.01,56.71
             13.01,56.71 10.91,55.88 8.78,57.83
             6.94,59.52 5.63,59.73 4.98,59.08
             5.51,59.76 6.24,60.42 7.18,61.06
             9.73,61.87 10.79,60.40 12.57,59.14
             12.57,59.14 12.57,59.14 12.57,59.14 Z
           M 8.79,57.83
           C 10.92,55.88 13.02,56.71 13.02,56.71
             13.02,56.71 13.05,56.52 13.05,56.52
             12.25,56.13 11.61,55.73 11.14,55.31
             11.14,55.30 9.70,54.11 7.87,55.24
             6.06,56.36 4.11,58.33 4.07,55.85
             4.04,56.03 4.00,56.22 4.00,56.41
             3.97,57.32 4.31,58.22 4.98,59.08
             5.64,59.72 6.94,59.52 8.79,57.83
             8.79,57.83 8.79,57.83 8.79,57.83 Z
           M 47.11,63.09
           C 48.03,62.54 48.83,62.35 49.08,62.23
             46.80,62.12 44.59,61.99 42.45,61.84
             42.07,61.97 41.52,62.16 40.91,62.50
             37.34,64.51 36.17,67.62 31.83,68.14
             33.83,68.42 35.92,68.68 38.09,68.91
             42.47,68.33 43.57,65.19 47.11,63.09
             47.11,63.09 47.11,63.09 47.11,63.09 Z
           M 7.88,55.23
           C 9.71,54.10 11.15,55.30 11.15,55.30
             10.53,54.75 10.20,54.17 10.22,53.59
             10.22,53.48 10.25,53.36 10.28,53.24
             10.28,53.24 10.27,53.24 10.27,53.24
             10.27,53.12 7.80,51.35 4.76,54.29
             4.41,54.79 4.18,55.30 4.08,55.83
             4.12,58.32 6.06,56.35 7.88,55.23
             7.88,55.23 7.88,55.23 7.88,55.23 Z
           M 33.69,62.13
           C 34.77,61.39 35.84,61.35 36.28,61.31
             34.27,61.11 32.35,60.89 30.52,60.65
             29.83,60.71 28.34,60.87 26.89,61.82
             23.69,63.90 23.63,65.53 19.21,65.75
             20.85,66.16 22.60,66.56 24.47,66.92
             24.47,66.92 24.48,66.88 24.48,66.88
             29.14,66.65 30.39,64.39 33.69,62.13
             33.69,62.13 33.69,62.13 33.69,62.13 Z
           M 20.59,61.72
           C 23.47,59.68 25.18,59.84 25.18,59.84
             25.18,59.84 25.18,59.83 25.18,59.83
             23.35,59.52 21.67,59.18 20.14,58.82
             19.54,58.88 18.20,59.19 16.32,60.52
             14.27,61.98 13.06,63.66 10.09,62.66
             10.09,62.66 10.09,62.68 10.09,62.68
             11.17,63.19 12.39,63.68 13.74,64.14
             13.74,64.14 13.75,64.07 13.75,64.07
             17.01,65.17 18.34,63.32 20.59,61.72
             20.59,61.72 20.59,61.72 20.59,61.72 Z
           M 26.90,61.82
           C 28.35,60.87 29.83,60.71 30.53,60.65
             28.64,60.40 26.86,60.13 25.19,59.84
             25.19,59.84 25.19,59.85 25.19,59.85
             23.52,59.85 23.48,59.69 20.60,61.73
             18.35,63.33 17.01,65.18 13.77,64.08
             13.77,64.08 13.76,64.15 13.76,64.15
             15.40,64.72 17.22,65.26 19.23,65.76
             23.64,65.53 23.70,63.90 26.90,61.82
             26.90,61.82 26.90,61.82 26.90,61.82 Z
           M 63.14,62.56
           C 88.35,62.58 109.73,59.68 115.67,55.75
             111.10,51.63 89.42,48.52 63.25,48.52
             38.02,48.52 16.88,51.40 11.14,55.30
             15.76,59.41 37.19,62.53 63.14,62.56
             63.14,62.56 63.14,62.56 63.14,62.56 Z
           M 32.75,46.38
           C 31.61,47.73 30.50,49.13 29.19,50.55
             31.20,50.27 33.35,50.02 35.59,49.80
             36.74,48.39 37.93,47.01 39.21,45.73
             36.96,45.92 34.80,46.14 32.75,46.38 Z
           M 51.99,44.96
           C 50.06,45.03 48.15,45.12 46.31,45.23
             44.72,46.40 43.23,47.72 41.89,49.27
             43.92,49.12 46.02,49.00 48.17,48.89
             49.29,47.34 50.59,46.06 51.99,44.96 Z
           M 90.30,45.88
           C 88.53,47.06 86.80,48.26 85.08,49.30
             87.39,49.47 89.60,49.67 91.73,49.90
             93.52,48.81 95.26,47.66 97.05,46.64
             94.92,46.35 92.67,46.10 90.30,45.88
             90.30,45.88 90.30,45.88 90.30,45.88 Z
           M 110.72,49.30
           C 108.69,49.97 106.66,50.75 104.63,51.80
             110.14,52.92 114.02,54.27 115.67,55.76
             116.69,55.09 117.27,54.38 117.31,53.66
             117.40,52.07 115.00,50.58 110.72,49.30
             110.72,49.30 110.72,49.30 110.72,49.30 Z
           M 103.73,47.67
           C 101.78,48.49 99.94,49.52 98.21,50.69
             100.54,51.03 102.69,51.39 104.63,51.79
             106.66,50.74 108.69,49.96 110.72,49.29
             108.76,48.71 106.41,48.17 103.73,47.67
             103.73,47.67 103.73,47.67 103.73,47.67 Z
           M 97.05,46.63
           C 95.26,47.65 93.52,48.81 91.73,49.89
             94.01,50.13 96.18,50.40 98.21,50.69
             99.94,49.52 101.78,48.48 103.73,47.67
             101.68,47.29 99.45,46.94 97.05,46.63
             97.05,46.63 97.05,46.63 97.05,46.63 Z
           M 83.62,45.35
           C 81.72,46.64 79.74,47.84 77.57,48.85
             80.16,48.97 82.67,49.12 85.09,49.30
             86.81,48.26 88.54,47.05 90.31,45.88
             88.16,45.68 85.93,45.50 83.62,45.35 Z
           M 75.66,44.94
           C 74.00,46.13 72.37,47.38 70.69,48.61
             73.03,48.66 75.32,48.75 77.56,48.85
             79.73,47.84 81.71,46.63 83.61,45.35
             81.06,45.18 78.40,45.04 75.66,44.94
             75.66,44.94 75.66,44.94 75.66,44.94 Z
           M 67.10,44.74
           C 65.49,45.97 63.88,47.24 62.27,48.53
             62.60,48.53 62.92,48.52 63.25,48.52
             65.78,48.52 68.26,48.55 70.69,48.61
             72.36,47.38 74.00,46.13 75.66,44.94
             72.88,44.84 70.03,44.77 67.10,44.74 Z
           M 63.93,44.73
           C 62.22,44.73 60.55,44.75 58.89,44.78
             57.44,45.96 56.06,47.24 54.74,48.64
             57.20,48.57 59.72,48.54 62.28,48.53
             63.89,47.25 65.50,45.97 67.11,44.74
             66.05,44.73 65.00,44.73 63.93,44.73 Z
           M 58.89,44.78
           C 56.55,44.82 54.24,44.88 51.99,44.96
             50.59,46.06 49.29,47.34 48.16,48.89
             50.30,48.79 52.49,48.71 54.73,48.65
             56.06,47.24 57.44,45.95 58.89,44.78 Z
           M 46.31,45.22
           C 43.86,45.36 41.48,45.53 39.21,45.73
             37.93,47.01 36.74,48.39 35.59,49.80
             37.61,49.60 39.71,49.42 41.88,49.26
             43.22,47.71 44.71,46.39 46.31,45.22 Z
           M 26.13,47.31
           C 24.66,48.55 23.41,50.01 22.35,51.67
             24.42,51.26 26.72,50.89 29.19,50.55
             30.50,49.13 31.61,47.73 32.75,46.38
             30.40,46.66 28.18,46.97 26.13,47.31 Z
           M 26.13,47.31
           C 23.95,47.67 21.95,48.06 20.17,48.47
             18.59,49.87 17.63,51.56 16.57,53.04
             18.24,52.55 20.18,52.09 22.35,51.67
             23.41,50.01 24.66,48.55 26.13,47.31
             26.13,47.31 26.13,47.31 26.13,47.31 Z
           M 20.17,48.47
           C 13.96,49.92 10.27,51.69 10.21,53.60
             10.19,54.18 10.52,54.75 11.14,55.31
             12.32,54.51 14.17,53.75 16.56,53.05
             17.63,51.56 18.58,49.87 20.17,48.47
             20.17,48.47 20.17,48.47 20.17,48.47 Z
           M 98.79,111.41
           C 98.79,111.41 104.76,109.81 107.55,105.81
             107.59,105.67 107.61,105.60 107.65,105.45
             105.68,108.28 103.85,109.50 98.79,111.41 Z
           M 28.92,109.11
           C 24.95,106.41 23.55,104.66 21.77,99.93
             21.81,100.06 21.83,100.12 21.87,100.25
             21.88,100.27 21.88,100.29 21.89,100.31
             24.42,107.01 28.92,109.11 28.92,109.11
             28.92,109.11 28.92,109.11 28.92,109.11 Z
           M 22.84,102.33
           C 23.29,103.75 23.51,104.47 23.95,105.89
             23.46,104.91 23.23,104.39 22.82,103.29
             22.40,101.94 22.19,101.27 21.77,99.92
             22.15,100.94 22.36,101.42 22.84,102.33 Z
           M 107.65,105.46
           C 107.21,106.99 107.07,107.78 106.58,109.29
             106.12,109.94 105.86,110.26 105.27,110.87
             105.79,109.32 105.95,108.50 106.41,106.93
             106.98,106.36 107.23,106.06 107.65,105.46 Z
           M 60.59,115.53
           C 73.50,115.53 86.42,115.70 98.78,111.41
             98.78,111.41 93.60,114.08 82.67,115.26
             71.74,116.44 60.59,115.53 60.59,115.53
             60.59,115.53 60.59,115.53 60.59,115.53 Z
           M 28.11,111.60
           C 28.52,113.16 28.72,113.93 29.08,115.46
             29.08,115.46 28.81,114.55 28.53,113.46
             28.26,112.38 28.11,111.60 28.11,111.60
             28.11,111.60 28.11,111.60 28.11,111.60 Z
           M 94.64,116.64
           C 94.16,118.29 93.85,119.07 93.06,120.56
             93.06,120.56 93.36,119.81 93.81,118.70
             94.25,117.60 94.64,116.64 94.64,116.64 Z
           M 106.41,106.93
           C 105.95,108.49 105.78,109.31 105.27,110.85
             105.27,110.85 105.43,110.06 105.76,108.96
             106.09,107.86 106.41,106.93 106.41,106.93 Z
           M 38.70,113.22
           C 38.90,114.86 39.02,115.69 39.21,117.32
             39.21,117.32 38.96,116.39 38.81,115.24
             38.66,114.09 38.70,113.22 38.70,113.22 Z
           M 78.63,115.25
           C 78.36,116.90 78.28,117.75 77.98,119.39
             77.98,119.39 77.90,118.50 78.09,117.34
             78.28,116.18 78.63,115.25 78.63,115.25 Z
           M 55.58,119.47
           C 55.49,121.09 55.39,121.88 55.12,123.40
             55.12,123.40 55.08,122.57 55.21,121.46
             55.34,120.35 55.58,119.47 55.58,119.47
             55.58,119.47 55.58,119.47 55.58,119.47 Z
           M 23.95,105.89
           C 23.51,104.47 23.28,103.76 22.84,102.34
             22.84,102.34 23.14,103.21 23.45,104.21
             23.76,105.22 23.95,105.89 23.95,105.89
             23.95,105.89 23.95,105.89 23.95,105.89 Z
           M 32.94,118.58
           C 32.69,117.01 32.54,116.22 32.20,114.61
             32.20,114.61 32.49,115.54 32.70,116.66
             32.91,117.78 32.94,118.58 32.94,118.58 Z
           M 98.27,118.39
           C 99.13,116.94 99.48,116.17 100.00,114.55
             100.00,114.55 99.84,115.38 99.36,116.46
             98.87,117.54 98.27,118.39 98.27,118.39 Z
           M 86.07,118.52
           C 86.45,116.87 86.57,116.01 86.92,114.35
             86.92,114.35 86.91,115.22 86.67,116.39
             86.42,117.56 86.07,118.52 86.07,118.52 Z
           M 64.03,123.64
           C 64.43,122.13 64.57,121.34 64.76,119.72
             64.76,119.72 64.90,120.60 64.69,121.71
             64.48,122.82 64.03,123.64 64.03,123.64
             64.03,123.64 64.03,123.64 64.03,123.64 Z
           M 45.69,118.59
           C 45.63,116.96 45.57,116.13 45.49,114.49
             45.49,114.49 45.70,115.40 45.75,116.55
             45.81,117.70 45.69,118.59 45.69,118.59
             45.69,118.59 45.69,118.59 45.69,118.59 Z
           M 28.92,109.11
           C 38.19,114.99 50.17,114.86 60.60,115.53
             60.60,115.53 50.72,115.95 41.85,114.27
             32.97,112.59 28.92,109.11 28.92,109.11
             28.92,109.11 28.92,109.11 28.92,109.11 Z
           M 81.90,119.06
           C 97.10,117.45 102.29,115.40 106.58,109.28
             106.58,109.28 104.56,113.15 97.59,115.93
             90.62,118.73 81.90,119.06 81.90,119.06
             81.90,119.06 81.90,119.06 81.90,119.06 Z
           M 42.10,118.00
           C 55.11,120.24 68.79,120.28 81.90,119.07
             81.90,119.07 72.48,120.33 60.36,120.02
             48.25,119.70 42.10,118.00 42.10,118.00 Z
           M 22.82,103.30
           C 26.68,113.55 30.06,115.61 42.10,118.00
             42.10,118.00 35.38,117.51 30.04,113.52
             24.70,109.53 22.82,103.30 22.82,103.30
             22.82,103.30 22.82,103.30 22.82,103.30 Z
           M 45.49,114.48
           C 45.57,116.12 45.63,116.96 45.69,118.60
             42.87,118.21 41.58,117.96 39.21,117.34
             39.02,115.70 38.90,114.87 38.70,113.22
             41.20,113.83 42.55,114.08 45.49,114.48
             45.49,114.48 45.49,114.48 45.49,114.48 Z
           M 86.93,114.33
           C 86.58,116.00 86.46,116.87 86.07,118.52
             83.07,118.98 81.45,119.16 77.98,119.40
             78.28,117.75 78.37,116.90 78.63,115.24
             82.18,114.99 83.85,114.80 86.93,114.33 Z
           M 100.00,114.54
           C 99.48,116.17 99.13,116.94 98.26,118.40
             96.41,119.38 95.37,119.81 93.05,120.57
             93.85,119.07 94.16,118.29 94.64,116.63
             97.03,115.90 98.11,115.48 100.00,114.54
             100.00,114.54 100.00,114.54 100.00,114.54 Z
           M 64.76,119.71
           C 64.57,121.34 64.43,122.13 64.03,123.65
             60.19,123.60 58.42,123.56 55.12,123.41
             55.40,121.88 55.49,121.09 55.58,119.46
             59.00,119.62 60.82,119.67 64.76,119.71 Z
           M 32.20,114.59
           C 32.54,116.21 32.69,117.01 32.94,118.58
             31.22,117.53 30.46,116.91 29.08,115.47
             28.72,113.93 28.52,113.15 28.10,111.59
             29.56,112.98 30.37,113.57 32.20,114.59 Z
           M 95.97,119.49
           C 84.34,123.99 71.94,123.63 59.69,123.57
             60.04,122.04 60.16,121.26 60.30,119.63
             72.91,119.67 85.60,119.95 97.65,115.58
             97.15,117.23 96.81,118.01 95.97,119.49
             95.97,119.49 95.97,119.49 95.97,119.49 Z
           M 59.69,123.57
           C 50.25,122.97 38.80,123.27 30.78,117.05
             30.46,115.49 30.29,114.70 29.90,113.11
             38.58,119.18 50.33,118.98 60.30,119.64
             60.16,121.26 60.04,122.04 59.69,123.57 Z
           M 41.74,113.87
           C 55.32,116.14 68.98,115.72 82.66,114.88
             82.35,116.55 82.25,117.41 81.91,119.06
             68.80,120.28 55.11,120.23 42.11,117.99
             41.97,116.36 41.88,115.52 41.74,113.87
             41.74,113.87 41.74,113.87 41.74,113.87 Z
           M 106.58,109.29
           C 102.30,115.41 97.10,117.45 81.90,119.07
             82.24,117.42 82.34,116.56 82.65,114.89
             98.23,113.21 103.70,111.11 107.65,105.47
             107.22,106.98 107.07,107.78 106.58,109.29
             106.58,109.29 106.58,109.29 106.58,109.29 Z
           M 42.10,118.00
           C 30.06,115.61 26.68,113.56 22.82,103.30
             22.40,101.95 22.19,101.28 21.77,99.93
             25.32,109.38 29.12,111.47 41.74,113.87
             41.88,115.52 41.97,116.36 42.10,118.00
             42.10,118.00 42.10,118.00 42.10,118.00 Z
           M 30.78,117.05
           C 27.20,114.12 25.91,112.17 23.87,106.67
             23.45,105.32 23.24,104.65 22.82,103.30
             24.75,108.43 26.11,110.28 29.90,113.11
             30.29,114.70 30.46,115.49 30.78,117.05 Z
           M 104.85,112.80
           C 102.58,116.12 100.80,117.45 95.97,119.49
             96.81,118.01 97.14,117.23 97.65,115.59
             102.62,113.62 104.44,112.35 106.58,109.29
             106.09,110.79 105.74,111.49 104.85,112.80
             104.85,112.80 104.85,112.80 104.85,112.80 Z
           M 100.37,116.24
           C 100.49,116.16 100.61,116.08 100.72,116.01
             100.72,116.01 100.87,115.92 100.87,115.92
             101.10,115.36 100.68,115.25 99.82,115.66
             100.33,115.58 100.54,115.78 100.37,116.24
             100.37,116.24 100.37,116.24 100.37,116.24 Z
           M 99.70,115.72
           C 99.70,115.72 99.82,115.66 99.82,115.66
             99.68,115.68 99.52,115.72 99.34,115.79
             99.34,115.84 99.33,115.89 99.31,115.94
             99.44,115.85 99.57,115.78 99.70,115.72 Z
           M 101.08,103.13
           C 101.08,103.13 107.40,101.55 109.73,98.22
             109.77,98.08 109.79,98.01 109.83,97.86
             108.19,100.22 106.33,101.33 101.08,103.13 Z
           M 26.96,101.15
           C 22.64,98.70 21.14,97.16 19.67,93.23
             19.71,93.36 19.73,93.42 19.77,93.54
             19.78,93.56 19.78,93.57 19.79,93.59
             21.90,99.17 26.96,101.15 26.96,101.15
             26.96,101.15 26.96,101.15 26.96,101.15 Z
           M 20.62,95.24
           C 21.06,96.66 21.28,97.37 21.73,98.79
             21.27,97.95 21.06,97.51 20.72,96.58
             20.72,96.58 19.67,93.23 19.67,93.23
             19.98,94.07 20.17,94.47 20.62,95.24
             20.62,95.24 20.62,95.24 20.62,95.24 Z
           M 109.84,97.87
           C 109.40,99.39 109.19,100.15 108.75,101.67
             108.36,102.22 108.13,102.49 107.58,103.02
             108.04,101.46 108.28,100.67 108.74,99.11
             109.26,98.62 109.48,98.37 109.84,97.87
             109.84,97.87 109.84,97.87 109.84,97.87 Z
           M 61.19,107.39
           C 74.69,107.32 88.09,107.26 101.09,103.14
             101.09,103.14 95.68,105.70 84.21,106.97
             72.74,108.24 61.19,107.39 61.19,107.39
             61.19,107.39 61.19,107.39 61.19,107.39 Z
           M 25.99,103.77
           C 26.41,105.32 26.62,106.10 27.04,107.66
             27.04,107.66 26.73,106.75 26.43,105.65
             26.13,104.56 25.99,103.77 25.99,103.77 Z
           M 96.80,108.28
           C 96.37,109.94 96.15,110.77 95.72,112.42
             95.72,112.42 95.81,111.57 96.11,110.40
             96.42,109.24 96.80,108.28 96.80,108.28 Z
           M 108.73,99.11
           C 108.27,100.67 108.04,101.44 107.57,103.00
             107.57,103.00 107.76,102.22 108.08,101.12
             108.40,100.02 108.73,99.11 108.73,99.11
             108.73,99.11 108.73,99.11 108.73,99.11 Z
           M 37.70,105.02
           C 37.90,106.65 38.00,107.47 38.20,109.10
             38.20,109.10 37.94,108.18 37.80,107.03
             37.65,105.89 37.70,105.02 37.70,105.02 Z
           M 79.96,106.99
           C 79.70,108.64 79.56,109.46 79.30,111.10
             79.30,111.10 79.23,110.23 79.41,109.07
             79.60,107.91 79.96,106.99 79.96,106.99 Z
           M 55.91,111.30
           C 55.84,112.92 55.81,113.73 55.74,115.35
             55.74,115.35 55.57,114.47 55.62,113.32
             55.67,112.18 55.91,111.30 55.91,111.30 Z
           M 21.73,98.78
           C 21.29,97.37 21.07,96.66 20.63,95.25
             20.63,95.25 20.92,96.10 21.23,97.10
             21.54,98.10 21.73,98.78 21.73,98.78 Z
           M 31.32,110.53
           C 30.97,108.92 30.80,108.12 30.46,106.51
             30.46,106.51 30.76,107.43 31.00,108.57
             31.24,109.71 31.32,110.53 31.32,110.53 Z
           M 101.17,110.40
           C 101.64,108.77 101.88,107.95 102.35,106.32
             102.35,106.32 102.21,107.15 101.87,108.30
             101.54,109.44 101.17,110.40 101.17,110.40 Z
           M 87.80,110.16
           C 88.15,108.50 88.32,107.67 88.66,106.02
             88.66,106.02 88.66,106.89 88.42,108.05
             88.17,109.22 87.80,110.16 87.80,110.16 Z
           M 65.14,115.60
           C 65.30,113.98 65.38,113.16 65.53,111.54
             65.53,111.54 65.68,112.42 65.57,113.56
             65.46,114.70 65.14,115.60 65.14,115.60 Z
           M 45.30,110.37
           C 45.22,108.74 45.19,107.93 45.11,106.30
             45.11,106.30 45.34,107.20 45.39,108.35
             45.44,109.50 45.30,110.37 45.30,110.37
             45.30,110.37 45.30,110.37 45.30,110.37 Z
           M 26.96,101.15
           C 37.56,106.60 49.58,106.77 61.19,107.38
             61.19,107.38 50.83,107.76 41.14,106.06
             31.45,104.36 26.96,101.15 26.96,101.15
             26.96,101.15 26.96,101.15 26.96,101.15 Z
           M 83.42,110.73
           C 99.38,108.99 105.13,106.84 108.75,101.66
             108.75,101.66 107.12,105.00 99.89,107.64
             92.66,110.27 83.42,110.73 83.42,110.73 Z
           M 41.38,109.77
           C 55.35,112.05 69.35,111.64 83.42,110.73
             83.42,110.73 73.64,112.13 60.97,111.84
             48.29,111.55 41.38,109.77 41.38,109.77
             41.38,109.77 41.38,109.77 41.38,109.77 Z
           M 20.72,96.58
           C 23.96,105.24 28.18,107.37 41.38,109.77
             41.38,109.77 33.91,109.17 28.08,105.53
             22.24,101.90 20.72,96.58 20.72,96.58
             20.72,96.58 20.72,96.58 20.72,96.58 Z
           M 45.11,106.29
           C 45.19,107.93 45.22,108.75 45.30,110.38
             42.24,109.98 40.82,109.73 38.20,109.11
             38.20,109.11 37.70,105.01 37.70,105.01
             40.44,105.63 41.92,105.88 45.11,106.29
             45.11,106.29 45.11,106.29 45.11,106.29 Z
           M 88.66,106.00
           C 88.31,107.67 88.14,108.50 87.79,110.16
             84.63,110.64 82.93,110.83 79.30,111.10
             79.57,109.45 79.70,108.62 79.97,106.97
             83.68,106.69 85.43,106.49 88.66,106.00 Z
           M 102.36,106.30
           C 101.89,107.94 101.65,108.76 101.17,110.40
             99.26,111.30 98.16,111.71 95.72,112.43
             96.15,110.77 96.37,109.93 96.81,108.27
             99.30,107.57 100.42,107.17 102.36,106.30 Z
           M 65.54,111.53
           C 65.38,113.16 65.30,113.98 65.14,115.61
             61.13,115.57 59.26,115.53 55.74,115.36
             55.81,113.73 55.84,112.92 55.91,111.29
             59.53,111.46 61.45,111.50 65.54,111.53
             65.54,111.53 65.54,111.53 65.54,111.53 Z
           M 30.46,106.50
           C 30.81,108.11 30.98,108.92 31.33,110.54
             29.41,109.55 28.55,108.98 27.05,107.67
             27.05,107.67 26.00,103.77 26.00,103.77
             27.55,105.00 28.44,105.55 30.46,106.50 Z
           M 98.79,111.41
           C 86.43,115.70 73.50,115.54 60.60,115.53
             60.72,113.90 60.78,113.09 60.90,111.46
             74.10,111.43 87.26,111.48 99.95,107.27
             99.48,108.93 99.25,109.76 98.79,111.41
             98.79,111.41 98.79,111.41 98.79,111.41 Z
           M 60.59,115.53
           C 50.16,114.86 38.18,114.98 28.91,109.11
             28.52,107.52 28.32,106.72 27.93,105.13
             37.77,110.81 49.99,110.77 60.88,111.46
             60.77,113.09 60.71,113.90 60.59,115.53
             60.59,115.53 60.59,115.53 60.59,115.53 Z
           M 41.02,105.67
           C 55.39,107.96 69.72,107.55 84.17,106.58
             83.87,108.24 83.71,109.07 83.41,110.73
             69.35,111.64 55.35,112.05 41.37,109.77
             41.24,108.13 41.17,107.31 41.02,105.67
             41.02,105.67 41.02,105.67 41.02,105.67 Z
           M 108.74,101.66
           C 105.12,106.84 99.37,108.99 83.41,110.73
             83.71,109.07 83.87,108.24 84.17,106.58
             100.51,104.78 106.54,102.57 109.83,97.86
             109.40,99.39 109.18,100.14 108.74,101.66
             108.74,101.66 108.74,101.66 108.74,101.66 Z
           M 41.38,109.77
           C 28.18,107.37 23.96,105.23 20.72,96.58
             20.72,96.58 19.67,93.23 19.67,93.23
             22.61,101.09 27.24,103.26 41.02,105.68
             41.17,107.31 41.24,108.13 41.38,109.77
             41.38,109.77 41.38,109.77 41.38,109.77 Z
           M 28.92,109.11
           C 24.95,106.41 23.55,104.66 21.77,99.93
             21.77,99.93 20.72,96.58 20.72,96.58
             22.34,100.91 23.80,102.56 27.94,105.13
             28.33,106.72 28.52,107.52 28.92,109.11
             28.92,109.11 28.92,109.11 28.92,109.11 Z
           M 107.65,105.46
           C 105.67,108.28 103.84,109.50 98.78,111.41
             99.24,109.75 99.47,108.93 99.93,107.27
             105.08,105.41 106.93,104.25 108.74,101.66
             108.31,103.18 108.09,103.94 107.65,105.46 Z
           M 102.99,108.16
           C 103.11,108.08 103.22,108.01 103.34,107.95
             103.39,107.92 103.44,107.90 103.49,107.87
             103.62,107.25 103.14,107.09 102.26,107.46
             102.81,107.41 103.08,107.66 102.99,108.16
             102.99,108.16 102.99,108.16 102.99,108.16 Z
           M 102.13,107.51
           C 102.17,107.49 102.21,107.47 102.26,107.45
             102.11,107.46 101.94,107.49 101.75,107.55
             101.75,107.60 101.75,107.65 101.74,107.71
             101.87,107.64 102.00,107.57 102.13,107.51
             102.13,107.51 102.13,107.51 102.13,107.51 Z
           M 103.38,94.86
           C 103.38,94.86 110.04,93.31 111.92,90.63
             111.96,90.49 111.98,90.42 112.02,90.27
             110.70,92.16 108.81,93.17 103.38,94.86
             103.38,94.86 103.38,94.86 103.38,94.86 Z
           M 25.00,93.20
           C 20.34,91.00 18.74,89.66 17.57,86.53
             17.61,86.66 17.63,86.72 17.67,86.84
             17.67,86.85 17.68,86.86 17.68,86.88
             19.37,91.34 25.00,93.20 25.00,93.20 Z
           M 18.41,88.15
           C 18.85,89.57 19.07,90.28 19.52,91.70
             19.08,91.00 18.90,90.64 18.62,89.88
             18.62,89.88 17.57,86.53 17.57,86.53
             17.82,87.20 17.99,87.52 18.41,88.15
             18.41,88.15 18.41,88.15 18.41,88.15 Z
           M 112.02,90.28
           C 111.58,91.80 111.37,92.56 110.93,94.08
             110.61,94.53 110.40,94.76 109.90,95.20
             110.36,93.64 110.60,92.85 111.06,91.29
             111.54,90.88 111.74,90.68 112.02,90.28
             112.02,90.28 112.02,90.28 112.02,90.28 Z
           M 61.78,99.24
           C 75.86,99.09 89.75,98.81 103.38,94.85
             103.38,94.85 97.74,97.30 85.73,98.65
             73.72,100.00 61.78,99.24 61.78,99.24
             61.78,99.24 61.78,99.24 61.78,99.24 Z
           M 23.88,95.97
           C 24.30,97.52 24.51,98.30 24.93,99.86
             24.93,99.86 24.61,98.95 24.31,97.86
             24.02,96.76 23.88,95.97 23.88,95.97 Z
           M 98.97,99.96
           C 98.54,101.62 98.32,102.45 97.89,104.10
             97.89,104.10 97.97,103.25 98.28,102.08
             98.58,100.91 98.97,99.96 98.97,99.96 Z
           M 111.05,91.29
           C 110.59,92.85 110.36,93.62 109.89,95.18
             109.89,95.18 110.08,94.39 110.41,93.29
             110.74,92.20 111.05,91.29 111.05,91.29 Z
           M 36.70,96.83
           C 36.90,98.46 37.00,99.28 37.20,100.91
             37.20,100.91 36.92,99.99 36.78,98.84
             36.64,97.69 36.70,96.83 36.70,96.83 Z
           M 81.30,98.72
           C 81.04,100.37 80.90,101.19 80.64,102.83
             80.64,102.83 80.56,101.96 80.75,100.80
             80.92,99.65 81.30,98.72 81.30,98.72 Z
           M 56.26,103.15
           C 56.19,104.77 56.16,105.58 56.09,107.20
             56.09,107.20 55.91,106.32 55.96,105.17
             56.00,104.03 56.26,103.15 56.26,103.15
             56.26,103.15 56.26,103.15 56.26,103.15 Z
           M 19.51,91.69
           C 19.07,90.28 18.85,89.57 18.41,88.16
             18.41,88.16 18.70,89.00 19.01,89.99
             19.32,90.99 19.51,91.69 19.51,91.69 Z
           M 29.59,102.45
           C 29.24,100.84 29.07,100.04 28.73,98.43
             28.73,98.43 29.04,99.35 29.29,100.48
             29.53,101.62 29.59,102.45 29.59,102.45 Z
           M 103.54,102.19
           C 104.01,100.56 104.25,99.74 104.72,98.10
             104.72,98.10 104.58,98.93 104.25,100.09
             103.92,101.24 103.54,102.19 103.54,102.19
             103.54,102.19 103.54,102.19 103.54,102.19 Z
           M 89.53,101.83
           C 89.88,100.17 90.05,99.34 90.39,97.69
             90.39,97.69 90.40,98.55 90.16,99.72
             89.92,100.89 89.53,101.83 89.53,101.83 Z
           M 65.93,107.44
           C 66.09,105.82 66.17,105.00 66.32,103.38
             66.32,103.38 66.48,104.26 66.37,105.40
             66.27,106.54 65.93,107.44 65.93,107.44 Z
           M 44.92,102.19
           C 44.84,100.56 44.81,99.75 44.73,98.12
             44.73,98.12 44.97,99.02 45.02,100.17
             45.07,101.31 44.92,102.19 44.92,102.19 Z
           M 25.00,93.20
           C 36.67,98.20 49.30,98.60 61.78,99.24
             61.78,99.24 50.94,99.58 40.43,97.87
             29.92,96.16 25.00,93.20 25.00,93.20 Z
           M 84.94,102.43
           C 101.66,100.57 107.96,98.30 110.93,94.07
             110.93,94.07 109.68,96.89 102.19,99.36
             94.70,101.84 84.94,102.43 84.94,102.43 Z
           M 40.67,101.57
           C 55.43,103.87 70.10,103.46 84.94,102.43
             84.94,102.43 74.79,103.97 61.56,103.70
             48.34,103.43 40.67,101.57 40.67,101.57 Z
           M 18.62,89.88
           C 21.26,96.95 26.31,99.16 40.67,101.58
             40.67,101.58 32.45,100.86 26.12,97.58
             19.79,94.29 18.62,89.88 18.62,89.88 Z
           M 44.73,98.10
           C 44.81,99.74 44.84,100.56 44.92,102.19
             41.61,101.77 40.06,101.52 37.20,100.91
             37.20,100.91 36.70,96.81 36.70,96.81
             39.68,97.42 41.30,97.68 44.73,98.10
             44.73,98.10 44.73,98.10 44.73,98.10 Z
           M 90.40,97.67
           C 90.05,99.34 89.88,100.17 89.53,101.83
             86.22,102.32 84.42,102.53 80.63,102.84
             80.90,101.19 81.03,100.36 81.30,98.71
             85.17,98.39 87.01,98.18 90.40,97.67
             90.40,97.67 90.40,97.67 90.40,97.67 Z
           M 104.73,98.09
           C 104.26,99.73 104.02,100.55 103.54,102.19
             101.58,103.02 100.44,103.41 97.89,104.10
             98.32,102.44 98.54,101.60 98.98,99.94
             101.58,99.27 102.74,98.89 104.73,98.09 Z
           M 66.33,103.37
           C 66.17,105.00 66.09,105.82 65.93,107.45
             61.76,107.44 59.80,107.39 56.08,107.22
             56.15,105.59 56.18,104.78 56.25,103.15
             60.08,103.32 62.08,103.36 66.33,103.37
             66.33,103.37 66.33,103.37 66.33,103.37 Z
           M 28.73,98.43
           C 29.08,100.04 29.25,100.85 29.60,102.47
             27.49,101.55 26.56,101.03 24.94,99.87
             24.94,99.87 23.89,95.97 23.89,95.97
             25.55,97.05 26.52,97.54 28.73,98.43 Z
           M 101.08,103.13
           C 88.08,107.25 74.68,107.31 61.18,107.38
             61.30,105.75 61.36,104.94 61.48,103.31
             75.27,103.20 88.91,103.03 102.23,98.99
             101.77,100.65 101.54,101.48 101.08,103.13
             101.08,103.13 101.08,103.13 101.08,103.13 Z
           M 61.19,107.39
           C 49.58,106.78 37.56,106.61 26.96,101.16
             26.57,99.57 26.37,98.77 25.98,97.18
             37.12,102.41 49.44,102.69 61.48,103.32
             61.36,104.95 61.30,105.76 61.19,107.39
             61.19,107.39 61.19,107.39 61.19,107.39 Z
           M 40.31,97.48
           C 55.46,99.79 70.47,99.38 85.70,98.29
             85.40,99.95 85.24,100.78 84.94,102.44
             70.10,103.47 55.43,103.88 40.67,101.58
             40.52,99.94 40.45,99.12 40.31,97.48
             40.31,97.48 40.31,97.48 40.31,97.48 Z
           M 110.93,94.07
           C 107.97,98.31 101.66,100.57 84.94,102.43
             85.24,100.77 85.40,99.94 85.70,98.28
             95.01,96.72 104.30,96.06 112.02,90.27
             111.58,91.79 111.36,92.55 110.93,94.07
             110.93,94.07 110.93,94.07 110.93,94.07 Z
           M 40.67,101.57
           C 26.31,99.15 21.26,96.94 18.62,89.87
             18.62,89.87 17.57,86.52 17.57,86.52
             19.90,92.79 25.37,95.04 40.31,97.47
             40.45,99.12 40.52,99.94 40.67,101.57 Z
           M 26.96,101.15
           C 22.64,98.70 21.14,97.16 19.67,93.23
             19.67,93.23 18.62,89.88 18.62,89.88
             19.94,93.41 21.49,94.86 25.98,97.18
             26.37,98.77 26.57,99.56 26.96,101.15 Z
           M 109.84,97.87
           C 108.19,100.22 106.33,101.34 101.09,103.14
             101.55,101.48 101.78,100.66 102.24,99.00
             107.58,97.25 109.45,96.19 110.93,94.08
             110.49,95.59 110.27,96.35 109.84,97.87 Z
           M 105.39,100.01
           C 105.51,99.94 105.63,99.87 105.74,99.81
             105.79,99.78 105.84,99.76 105.89,99.74
             106.02,99.12 105.53,98.92 104.63,99.26
             105.20,99.24 105.47,99.50 105.39,100.01 Z
           M 104.51,99.31
           C 104.55,99.29 104.60,99.28 104.64,99.26
             104.49,99.27 104.31,99.29 104.12,99.34
             104.12,99.39 104.12,99.44 104.11,99.50
             104.24,99.43 104.38,99.36 104.51,99.31 Z
           M 105.68,86.58
           C 105.68,86.58 112.69,85.05 114.10,83.04
             114.14,82.90 114.16,82.83 114.20,82.68
             113.21,84.10 111.29,85.00 105.68,86.58 Z
           M 23.04,85.24
           C 18.03,83.29 16.33,82.15 15.47,79.82
             15.51,79.95 15.53,80.01 15.57,80.13
             15.57,80.14 15.58,80.15 15.58,80.16
             16.84,83.51 23.04,85.24 23.04,85.24 Z
           M 16.19,81.06
           C 16.63,82.48 16.85,83.19 17.30,84.61
             16.89,84.05 16.73,83.76 16.52,83.18
             16.52,83.18 15.47,79.83 15.47,79.83
             15.65,80.32 15.80,80.57 16.19,81.06
             16.19,81.06 16.19,81.06 16.19,81.06 Z
           M 114.20,82.68
           C 113.76,84.20 113.55,84.96 113.11,86.48
             112.86,86.83 112.68,87.01 112.22,87.38
             112.68,85.82 112.92,85.03 113.38,83.47
             113.82,83.14 113.99,82.99 114.20,82.68
             114.20,82.68 114.20,82.68 114.20,82.68 Z
           M 62.37,91.10
           C 77.03,90.87 91.42,90.36 105.68,86.58
             105.68,86.58 99.81,88.92 87.26,90.36
             74.70,91.80 62.37,91.10 62.37,91.10
             62.37,91.10 62.37,91.10 62.37,91.10 Z
           M 21.77,88.16
           C 22.19,89.71 22.40,90.49 22.82,92.05
             22.82,92.05 22.49,91.15 22.20,90.06
             21.90,88.96 21.77,88.16 21.77,88.16 Z
           M 101.14,91.64
           C 100.71,93.30 100.49,94.13 100.06,95.78
             100.06,95.78 100.14,94.93 100.44,93.76
             100.74,92.59 101.14,91.64 101.14,91.64 Z
           M 113.37,83.48
           C 112.91,85.04 112.68,85.81 112.21,87.37
             112.21,87.37 112.40,86.57 112.73,85.47
             113.07,84.37 113.37,83.48 113.37,83.48 Z
           M 35.70,88.63
           C 35.90,90.26 36.00,91.08 36.20,92.71
             36.20,92.71 35.91,91.80 35.77,90.65
             35.63,89.49 35.70,88.63 35.70,88.63 Z
           M 82.63,90.45
           C 82.37,92.10 82.23,92.92 81.97,94.56
             81.97,94.56 81.88,93.69 82.07,92.53
             82.25,91.38 82.63,90.45 82.63,90.45 Z
           M 56.60,95.00
           C 56.53,96.62 56.50,97.43 56.43,99.05
             56.43,99.05 56.24,98.16 56.28,97.02
             56.33,95.89 56.60,95.00 56.60,95.00 Z
           M 17.30,84.59
           C 16.86,83.18 16.64,82.47 16.20,81.06
             16.20,81.06 16.48,81.88 16.80,82.88
             17.12,83.88 17.30,84.59 17.30,84.59
             17.30,84.59 17.30,84.59 17.30,84.59 Z
           M 27.86,94.38
           C 27.51,92.77 27.34,91.97 27.00,90.36
             27.00,90.36 27.32,91.27 27.57,92.41
             27.80,93.54 27.86,94.38 27.86,94.38 Z
           M 105.91,93.98
           C 106.38,92.35 106.62,91.53 107.09,89.89
             107.09,89.89 106.95,90.73 106.62,91.88
             106.29,93.03 105.91,93.98 105.91,93.98
             105.91,93.98 105.91,93.98 105.91,93.98 Z
           M 91.27,93.50
           C 91.62,91.84 91.79,91.01 92.13,89.36
             92.13,89.36 92.15,90.22 91.90,91.39
             91.66,92.56 91.27,93.50 91.27,93.50 Z
           M 66.73,99.28
           C 66.89,97.66 66.97,96.84 67.12,95.22
             67.12,95.22 67.29,96.09 67.18,97.24
             67.07,98.38 66.73,99.28 66.73,99.28 Z
           M 44.53,94.00
           C 44.45,92.37 44.42,91.56 44.34,89.93
             44.34,89.93 44.59,90.83 44.65,91.98
             44.70,93.13 44.53,94.00 44.53,94.00
             44.53,94.00 44.53,94.00 44.53,94.00 Z
           M 23.04,85.24
           C 35.75,89.77 49.04,90.41 62.37,91.09
             62.37,91.09 51.05,91.39 39.72,89.66
             28.40,87.95 23.04,85.24 23.04,85.24
             23.04,85.24 23.04,85.24 23.04,85.24 Z
           M 86.46,94.13
           C 95.76,92.60 105.19,91.92 113.11,86.48
             113.11,86.48 112.23,88.77 104.49,91.09
             96.75,93.41 86.46,94.13 86.46,94.13 Z
           M 39.95,93.38
           C 55.20,95.58 71.13,95.98 86.46,94.14
             86.46,94.14 75.94,95.81 62.16,95.56
             48.38,95.30 39.95,93.38 39.95,93.38 Z
           M 16.52,83.17
           C 18.55,88.64 24.43,90.93 39.96,93.37
             39.96,93.37 30.99,92.54 24.17,89.61
             17.35,86.68 16.52,83.17 16.52,83.17
             16.52,83.17 16.52,83.17 16.52,83.17 Z
           M 44.34,89.92
           C 44.42,91.56 44.45,92.38 44.53,94.01
             40.98,93.58 39.30,93.32 36.20,92.72
             36.20,92.72 35.70,88.62 35.70,88.62
             38.92,89.22 40.67,89.48 44.34,89.92 Z
           M 92.14,89.35
           C 91.79,91.02 91.62,91.85 91.27,93.51
             87.80,94.02 85.92,94.24 81.96,94.58
             82.23,92.93 82.36,92.10 82.63,90.45
             86.67,90.09 88.59,89.86 92.14,89.35 Z
           M 107.10,89.89
           C 106.63,91.53 106.39,92.35 105.91,93.99
             103.90,94.75 102.72,95.12 100.06,95.79
             100.49,94.13 100.71,93.29 101.15,91.63
             103.86,90.97 105.07,90.61 107.10,89.89
             107.10,89.89 107.10,89.89 107.10,89.89 Z
           M 67.12,95.21
           C 66.96,96.84 66.88,97.66 66.72,99.29
             62.39,99.30 60.35,99.25 56.43,99.07
             56.50,97.44 56.53,96.63 56.60,95.00
             60.63,95.18 62.71,95.22 67.12,95.21
             67.12,95.21 67.12,95.21 67.12,95.21 Z
           M 26.99,90.35
           C 27.34,91.96 27.51,92.77 27.86,94.39
             25.56,93.54 24.55,93.08 22.83,92.05
             22.83,92.05 21.78,88.15 21.78,88.15
             23.55,89.10 24.60,89.54 26.99,90.35 Z
           M 103.38,94.86
           C 89.75,98.81 75.86,99.10 61.78,99.25
             61.90,97.62 61.96,96.81 62.08,95.18
             76.45,94.99 90.59,94.59 104.53,90.73
             104.07,92.37 103.84,93.20 103.38,94.86
             103.38,94.86 103.38,94.86 103.38,94.86 Z
           M 61.78,99.24
           C 49.30,98.60 36.67,98.19 25.00,93.20
             24.61,91.61 24.41,90.81 24.02,89.22
             36.21,93.98 49.17,94.51 62.08,95.17
             61.96,96.80 61.90,97.61 61.78,99.24 Z
           M 39.60,89.28
           C 55.25,91.48 71.51,91.90 87.23,89.99
             86.93,91.65 86.77,92.48 86.47,94.14
             71.15,95.98 55.22,95.58 39.96,93.38
             39.81,91.74 39.74,90.92 39.60,89.28 Z
           M 113.11,86.48
           C 105.19,91.93 95.76,92.60 86.46,94.13
             86.76,92.47 86.92,91.64 87.22,89.98
             96.53,88.47 106.06,87.76 114.20,82.68
             113.77,84.20 113.55,84.96 113.11,86.48
             113.11,86.48 113.11,86.48 113.11,86.48 Z
           M 39.95,93.38
           C 24.43,90.94 18.54,88.65 16.51,83.18
             16.51,83.18 15.46,79.83 15.46,79.83
             17.18,84.51 23.49,86.84 39.59,89.29
             39.74,90.92 39.81,91.74 39.95,93.38
             39.95,93.38 39.95,93.38 39.95,93.38 Z
           M 25.00,93.20
           C 20.34,91.00 18.74,89.66 17.57,86.53
             17.57,86.53 16.52,83.18 16.52,83.18
             17.53,85.92 19.18,87.16 24.02,89.23
             24.41,90.81 24.61,91.61 25.00,93.20 Z
           M 112.02,90.28
           C 110.70,92.16 108.81,93.17 103.38,94.86
             103.84,93.20 104.07,92.38 104.53,90.72
             110.05,89.08 111.96,88.13 113.11,86.48
             112.67,88.00 112.46,88.76 112.02,90.28 Z
           M 107.78,91.86
           C 107.90,91.79 108.02,91.73 108.14,91.68
             108.14,91.68 108.29,91.62 108.29,91.62
             108.42,91.00 107.93,90.76 107.01,91.06
             107.59,91.07 107.87,91.35 107.78,91.86
             107.78,91.86 107.78,91.86 107.78,91.86 Z
           M 106.88,91.11
           C 106.92,91.09 106.97,91.08 107.01,91.06
             106.85,91.06 106.68,91.08 106.48,91.12
             106.48,91.17 106.48,91.22 106.47,91.28
             106.61,91.21 106.75,91.16 106.88,91.11
             106.88,91.11 106.88,91.11 106.88,91.11 Z
           M 107.98,78.30
           C 107.98,78.30 115.34,76.80 116.29,75.45
             116.33,75.31 116.35,75.24 116.39,75.09
             115.73,76.03 113.77,76.83 107.98,78.30 Z
           M 21.08,77.29
           C 15.72,75.60 13.92,74.66 13.37,73.12
             13.41,73.25 13.43,73.31 13.47,73.43
             13.47,73.44 13.47,73.44 13.48,73.45
             14.31,75.68 21.08,77.29 21.08,77.29 Z
           M 13.98,73.96
           C 14.42,75.38 14.64,76.09 15.09,77.51
             14.71,77.09 14.57,76.88 14.42,76.47
             14.42,76.47 13.37,73.12 13.37,73.12
             13.49,73.45 13.61,73.62 13.98,73.96
             13.98,73.96 13.98,73.96 13.98,73.96 Z
           M 116.38,75.09
           C 115.94,76.61 115.73,77.37 115.29,78.89
             115.11,79.14 114.96,79.28 114.53,79.56
             114.99,78.00 115.23,77.21 115.69,75.65
             116.10,75.41 116.24,75.29 116.38,75.09
             116.38,75.09 116.38,75.09 116.38,75.09 Z
           M 62.97,82.95
           C 78.21,82.64 93.11,81.91 107.98,78.30
             107.98,78.30 101.88,80.53 88.79,82.06
             75.69,83.58 62.97,82.95 62.97,82.95
             62.97,82.95 62.97,82.95 62.97,82.95 Z
           M 19.67,80.35
           C 20.09,81.90 20.30,82.68 20.72,84.24
             20.72,84.24 20.39,83.35 20.09,82.26
             19.79,81.16 19.67,80.35 19.67,80.35 Z
           M 103.31,83.31
           C 102.88,84.97 102.66,85.80 102.23,87.45
             102.23,87.45 102.30,86.59 102.60,85.43
             102.91,84.26 103.31,83.31 103.31,83.31 Z
           M 115.70,75.66
           C 115.24,77.22 115.01,77.99 114.54,79.55
             114.54,79.55 114.74,78.74 115.07,77.64
             115.39,76.54 115.70,75.66 115.70,75.66 Z
           M 34.70,80.43
           C 34.90,82.06 35.00,82.88 35.20,84.51
             35.20,84.51 34.90,83.60 34.75,82.45
             34.61,81.30 34.70,80.43 34.70,80.43 Z
           M 83.96,82.19
           C 83.70,83.84 83.56,84.66 83.30,86.30
             83.30,86.30 83.20,85.43 83.39,84.27
             83.57,83.12 83.96,82.19 83.96,82.19 Z
           M 56.95,86.86
           C 56.88,88.48 56.85,89.29 56.78,90.91
             56.78,90.91 56.57,90.02 56.62,88.88
             56.67,87.74 56.95,86.86 56.95,86.86 Z
           M 15.08,77.50
           C 14.64,76.09 14.42,75.38 13.98,73.97
             13.98,73.97 14.26,74.77 14.57,75.77
             14.89,76.77 15.08,77.50 15.08,77.50 Z
           M 26.12,86.31
           C 25.77,84.70 25.60,83.90 25.26,82.29
             25.26,82.29 25.60,83.20 25.84,84.33
             26.08,85.47 26.12,86.31 26.12,86.31
             26.12,86.31 26.12,86.31 26.12,86.31 Z
           M 108.28,85.77
           C 108.75,84.14 108.99,83.32 109.46,81.68
             109.46,81.68 109.33,82.52 108.99,83.67
             108.66,84.83 108.28,85.77 108.28,85.77
             108.28,85.77 108.28,85.77 108.28,85.77 Z
           M 93.01,85.17
           C 93.36,83.51 93.53,82.68 93.87,81.03
             93.87,81.03 93.90,81.89 93.65,83.06
             93.40,84.23 93.01,85.17 93.01,85.17 Z
           M 67.52,91.12
           C 67.68,89.50 67.76,88.68 67.91,87.06
             67.91,87.06 68.09,87.93 67.98,89.08
             67.87,90.22 67.52,91.12 67.52,91.12 Z
           M 44.15,85.81
           C 44.07,84.18 44.04,83.37 43.96,81.74
             43.96,81.74 44.23,82.64 44.28,83.79
             44.33,84.94 44.15,85.81 44.15,85.81 Z
           M 21.08,77.29
           C 34.78,81.34 48.77,82.24 62.96,82.96
             62.96,82.96 51.16,83.22 39.01,81.48
             26.87,79.74 21.08,77.29 21.08,77.29
             21.08,77.29 21.08,77.29 21.08,77.29 Z
           M 87.99,85.83
           C 97.33,84.33 106.93,83.57 115.30,78.88
             115.30,78.88 114.80,80.64 106.79,82.80
             98.78,84.96 87.99,85.83 87.99,85.83 Z
           M 39.24,85.18
           C 55.29,87.39 71.88,87.82 87.98,85.84
             87.98,85.84 77.09,87.65 62.75,87.42
             48.42,87.18 39.24,85.18 39.24,85.18
             39.24,85.18 39.24,85.18 39.24,85.18 Z
           M 14.42,76.47
           C 15.84,80.35 22.56,82.72 39.24,85.18
             39.24,85.18 29.52,84.24 22.21,81.66
             14.90,79.08 14.42,76.47 14.42,76.47
             14.42,76.47 14.42,76.47 14.42,76.47 Z
           M 43.96,81.73
           C 44.04,83.37 44.07,84.19 44.15,85.82
             40.35,85.38 38.54,85.11 35.20,84.52
             35.20,84.52 34.70,80.42 34.70,80.42
             38.17,81.01 40.04,81.28 43.96,81.73
             43.96,81.73 43.96,81.73 43.96,81.73 Z
           M 93.87,81.02
           C 93.52,82.69 93.35,83.52 93.00,85.18
             89.37,85.71 87.41,85.94 83.29,86.31
             83.56,84.66 83.69,83.83 83.96,82.18
             88.16,81.80 90.17,81.55 93.87,81.02 Z
           M 109.47,81.68
           C 109.00,83.32 108.76,84.14 108.28,85.78
             106.23,86.47 105.00,86.81 102.23,87.46
             102.66,85.80 102.88,84.96 103.32,83.30
             106.14,82.66 107.39,82.33 109.47,81.68
             109.47,81.68 109.47,81.68 109.47,81.68 Z
           M 67.91,87.05
           C 67.75,88.68 67.67,89.50 67.51,91.13
             63.02,91.16 60.90,91.12 56.77,90.92
             56.84,89.29 56.87,88.48 56.94,86.85
             61.18,87.04 63.35,87.09 67.91,87.05 Z
           M 25.26,82.28
           C 25.61,83.89 25.78,84.70 26.13,86.32
             23.65,85.55 22.55,85.13 20.72,84.25
             20.72,84.25 19.67,80.35 19.67,80.35
             21.54,81.15 22.68,81.54 25.26,82.28
             25.26,82.28 25.26,82.28 25.26,82.28 Z
           M 105.68,86.58
           C 91.42,90.36 77.04,90.87 62.37,91.10
             62.49,89.47 62.55,88.66 62.67,87.03
             77.62,86.76 92.26,86.14 106.83,82.44
             106.37,84.10 106.14,84.92 105.68,86.58 Z
           M 62.37,91.10
           C 49.03,90.42 35.74,89.77 23.04,85.25
             22.65,83.66 22.45,82.86 22.06,81.27
             35.27,85.56 48.90,86.33 62.67,87.03
             62.55,88.66 62.49,89.47 62.37,91.10
             62.37,91.10 62.37,91.10 62.37,91.10 Z
           M 38.89,81.08
           C 55.33,83.29 72.26,83.74 88.75,81.69
             88.45,83.35 88.29,84.18 87.99,85.84
             71.89,87.82 55.29,87.39 39.25,85.18
             39.10,83.54 39.03,82.72 38.89,81.08
             38.89,81.08 38.89,81.08 38.89,81.08 Z
           M 115.29,78.89
           C 106.92,83.58 97.32,84.34 87.98,85.84
             88.28,84.18 88.44,83.35 88.74,81.69
             98.13,80.21 107.77,79.37 116.38,75.10
             115.95,76.61 115.73,77.37 115.29,78.89 Z
           M 39.24,85.18
           C 22.56,82.72 15.83,80.35 14.42,76.47
             14.42,76.47 13.37,73.12 13.37,73.12
             14.48,76.21 21.62,78.61 38.89,81.08
             39.03,82.72 39.10,83.54 39.24,85.18 Z
           M 23.04,85.24
           C 18.03,83.29 16.33,82.15 15.47,79.82
             15.47,79.82 14.42,76.47 14.42,76.47
             15.13,78.41 16.88,79.45 22.06,81.27
             22.45,82.86 22.65,83.65 23.04,85.24 Z
           M 114.20,82.68
           C 113.21,84.09 111.29,84.99 105.68,86.58
             106.14,84.92 106.37,84.10 106.83,82.44
             112.54,80.91 114.47,80.06 115.30,78.89
             114.86,80.41 114.64,81.16 114.20,82.68
             114.20,82.68 114.20,82.68 114.20,82.68 Z
           M 110.18,83.71
           C 110.30,83.65 110.42,83.59 110.54,83.55
             110.59,83.53 110.64,83.51 110.69,83.50
             110.81,82.87 110.32,82.60 109.39,82.87
             109.98,82.89 110.26,83.20 110.18,83.71
             110.18,83.71 110.18,83.71 110.18,83.71 Z
           M 109.26,82.90
           C 109.31,82.89 109.35,82.87 109.39,82.86
             109.23,82.85 109.05,82.86 108.85,82.90
             108.85,82.95 108.85,83.01 108.84,83.06
             108.98,83.00 109.12,82.95 109.26,82.90
             109.26,82.90 109.26,82.90 109.26,82.90 Z
           M 110.27,70.02
           C 110.27,70.02 117.98,68.54 118.46,67.85
             118.50,67.71 118.52,67.64 118.56,67.49
             118.24,67.97 116.26,68.66 110.27,70.02
             110.27,70.02 110.27,70.02 110.27,70.02 Z
           M 19.12,69.33
           C 13.41,67.89 11.52,67.15 11.27,66.41
             11.31,66.54 11.33,66.60 11.37,66.72
             11.37,66.72 11.37,66.73 11.37,66.73
             11.79,67.85 19.12,69.33 19.12,69.33 Z
           M 11.76,66.87
           C 12.20,68.29 12.42,69.00 12.87,70.42
             12.52,70.14 12.40,70.01 12.32,69.76
             12.32,69.76 11.27,66.41 11.27,66.41
             11.32,66.57 11.43,66.66 11.76,66.87
             11.76,66.87 11.76,66.87 11.76,66.87 Z
           M 118.57,67.50
           C 118.13,69.02 117.92,69.78 117.48,71.30
             117.37,71.45 117.25,71.54 116.86,71.74
             117.32,70.18 117.56,69.39 118.02,67.83
             118.38,67.67 118.50,67.60 118.57,67.50
             118.57,67.50 118.57,67.50 118.57,67.50 Z
           M 63.56,74.81
           C 79.27,74.53 94.92,73.57 110.27,70.02
             110.27,70.02 103.94,72.15 90.31,73.75
             76.68,75.37 63.56,74.81 63.56,74.81
             63.56,74.81 63.56,74.81 63.56,74.81 Z
           M 17.56,72.54
           C 17.98,74.09 18.19,74.87 18.61,76.43
             18.61,76.43 18.27,75.55 17.97,74.46
             17.67,73.36 17.56,72.54 17.56,72.54 Z
           M 105.48,74.99
           C 105.05,76.65 104.83,77.48 104.40,79.13
             104.40,79.13 104.46,78.27 104.77,77.10
             105.07,75.94 105.48,74.99 105.48,74.99 Z
           M 118.02,67.84
           C 117.56,69.40 117.33,70.17 116.86,71.73
             116.86,71.73 117.06,70.91 117.39,69.82
             117.72,68.72 118.02,67.84 118.02,67.84 Z
           M 33.70,72.24
           C 33.90,73.87 34.00,74.69 34.20,76.32
             34.20,76.32 33.88,75.41 33.74,74.26
             33.60,73.10 33.70,72.24 33.70,72.24 Z
           M 85.29,73.92
           C 85.03,75.57 84.89,76.39 84.63,78.03
             84.63,78.03 84.52,77.17 84.71,76.01
             84.89,74.85 85.29,73.92 85.29,73.92 Z
           M 57.29,78.71
           C 57.22,80.33 57.19,81.14 57.12,82.76
             57.12,82.76 56.90,81.87 56.95,80.73
             57.00,79.59 57.29,78.71 57.29,78.71 Z
           M 12.87,70.41
           C 12.43,69.00 12.21,68.29 11.77,66.88
             11.77,66.88 12.05,67.67 12.36,68.66
             12.67,69.66 12.87,70.41 12.87,70.41 Z
           M 24.39,78.23
           C 24.04,76.62 23.87,75.82 23.53,74.21
             23.53,74.21 23.88,75.12 24.12,76.25
             24.36,77.39 24.39,78.23 24.39,78.23
             24.39,78.23 24.39,78.23 24.39,78.23 Z
           M 110.66,77.56
           C 111.13,75.93 111.37,75.11 111.84,73.47
             111.84,73.47 111.71,74.32 111.38,75.47
             111.04,76.63 110.66,77.56 110.66,77.56
             110.66,77.56 110.66,77.56 110.66,77.56 Z
           M 94.74,76.84
           C 95.09,75.18 95.26,74.35 95.60,72.70
             95.60,72.70 95.64,73.56 95.39,74.73
             95.16,75.90 94.74,76.84 94.74,76.84 Z
           M 68.31,82.96
           C 68.47,81.34 68.55,80.52 68.70,78.90
             68.70,78.90 68.89,79.77 68.78,80.92
             68.67,82.06 68.31,82.96 68.31,82.96 Z
           M 43.77,77.63
           C 43.69,76.00 43.66,75.19 43.58,73.56
             43.58,73.56 43.86,74.47 43.91,75.61
             43.97,76.75 43.77,77.63 43.77,77.63 Z
           M 19.12,69.33
           C 33.79,72.89 48.52,74.06 63.56,74.81
             63.56,74.81 51.28,75.03 38.32,73.28
             25.36,71.53 19.12,69.33 19.12,69.33
             19.12,69.33 19.12,69.33 19.12,69.33 Z
           M 89.51,77.53
           C 98.99,76.05 108.61,75.13 117.48,71.29
             117.48,71.29 117.35,72.52 109.09,74.53
             100.82,76.54 89.51,77.53 89.51,77.53 Z
           M 38.53,76.98
           C 55.37,79.20 72.62,79.66 89.51,77.54
             89.51,77.54 78.24,79.48 63.36,79.27
             48.47,79.05 38.53,76.98 38.53,76.98
             38.53,76.98 38.53,76.98 38.53,76.98 Z
           M 12.32,69.76
           C 13.13,72.05 20.69,74.50 38.53,76.98
             38.53,76.98 28.06,75.93 20.26,73.70
             12.45,71.47 12.32,69.76 12.32,69.76 Z
           M 43.58,73.54
           C 43.66,75.18 43.69,76.00 43.77,77.63
             39.72,77.18 37.79,76.91 34.20,76.32
             34.20,76.32 33.70,72.22 33.70,72.22
             37.41,72.81 39.41,73.08 43.58,73.54 Z
           M 95.61,72.69
           C 95.26,74.36 95.09,75.19 94.74,76.85
             90.96,77.39 88.91,77.64 84.62,78.04
             84.89,76.39 85.02,75.56 85.29,73.91
             89.66,73.50 91.75,73.24 95.61,72.69
             95.61,72.69 95.61,72.69 95.61,72.69 Z
           M 111.84,73.47
           C 111.37,75.11 111.13,75.93 110.65,77.57
             108.55,78.19 107.28,78.51 104.40,79.14
             104.83,77.48 105.05,76.64 105.49,74.98
             108.42,74.36 109.72,74.05 111.84,73.47
             111.84,73.47 111.84,73.47 111.84,73.47 Z
           M 68.70,78.89
           C 68.54,80.52 68.46,81.34 68.30,82.97
             63.66,83.02 61.44,82.98 57.12,82.78
             57.19,81.15 57.22,80.34 57.29,78.71
             61.72,78.90 63.98,78.95 68.70,78.89
             68.70,78.89 68.70,78.89 68.70,78.89 Z
           M 23.52,74.21
           C 23.87,75.82 24.04,76.63 24.39,78.25
             21.72,77.55 20.54,77.18 18.61,76.44
             18.61,76.44 17.56,72.54 17.56,72.54
             19.54,73.19 20.76,73.54 23.52,74.21 Z
           M 107.98,78.30
           C 93.11,81.91 78.21,82.65 62.97,82.95
             63.09,81.32 63.15,80.51 63.27,78.88
             78.80,78.53 93.95,77.68 109.13,74.16
             108.66,75.82 108.44,76.65 107.98,78.30
             107.98,78.30 107.98,78.30 107.98,78.30 Z
           M 62.97,82.95
           C 48.78,82.24 34.79,81.33 21.09,77.28
             20.70,75.69 20.50,74.89 20.11,73.30
             34.30,77.10 48.66,78.14 63.27,78.87
             63.14,80.51 63.08,81.33 62.97,82.95
             62.97,82.95 62.97,82.95 62.97,82.95 Z
           M 38.17,72.88
           C 55.68,75.14 72.73,74.98 90.27,73.38
             89.97,75.04 89.81,75.87 89.51,77.53
             72.63,79.66 55.37,79.20 38.53,76.97
             38.39,75.34 38.32,74.52 38.17,72.88
             38.17,72.88 38.17,72.88 38.17,72.88 Z
           M 117.48,71.30
           C 108.61,75.13 98.99,76.06 89.51,77.54
             89.81,75.88 89.97,75.05 90.27,73.39
             99.86,71.91 109.44,70.86 118.57,67.51
             118.13,69.02 117.91,69.78 117.48,71.30 Z
           M 38.53,76.98
           C 20.69,74.50 13.13,72.05 12.32,69.76
             12.32,69.76 11.27,66.41 11.27,66.41
             11.77,67.90 19.75,70.39 38.17,72.88
             38.32,74.52 38.39,75.34 38.53,76.98 Z
           M 21.08,77.29
           C 15.72,75.60 13.92,74.66 13.37,73.12
             13.37,73.12 12.32,69.77 12.32,69.77
             12.72,70.92 14.57,71.75 20.10,73.32
             20.49,74.90 20.69,75.70 21.08,77.29 Z
           M 116.38,75.09
           C 115.72,76.03 113.77,76.83 107.97,78.30
             108.43,76.64 108.66,75.82 109.12,74.16
             115.01,72.74 116.98,72.00 117.47,71.29
             117.04,72.81 116.82,73.57 116.38,75.09
             116.38,75.09 116.38,75.09 116.38,75.09 Z
           M 112.57,75.56
           C 112.69,75.50 112.82,75.46 112.94,75.42
             112.99,75.40 113.05,75.39 113.10,75.37
             113.22,74.74 112.73,74.43 111.77,74.66
             112.37,74.72 112.66,75.04 112.57,75.56
             112.57,75.56 112.57,75.56 112.57,75.56 Z
           M 111.63,74.70
           C 111.68,74.69 111.72,74.68 111.77,74.66
             111.61,74.65 111.42,74.65 111.21,74.68
             111.21,74.73 111.21,74.79 111.20,74.84
             111.35,74.79 111.49,74.74 111.63,74.70
             111.63,74.70 111.63,74.70 111.63,74.70 Z
           M 112.58,61.71
           C 112.58,61.71 120.64,60.26 120.66,60.23
             120.70,60.09 120.72,60.02 120.76,59.87
             120.76,59.87 118.75,60.46 112.58,61.71
             112.58,61.71 112.58,61.71 112.58,61.71 Z
           M 17.15,61.34
           C 11.10,60.15 9.10,59.62 9.16,59.67
             9.20,59.80 9.22,59.86 9.26,59.99
             9.25,59.98 17.15,61.34 17.15,61.34 Z
           M 9.54,59.75
           C 9.98,61.17 10.21,61.89 10.65,63.31
             10.33,63.17 10.23,63.12 10.21,63.04
             9.79,61.69 9.58,61.02 9.16,59.67
             9.15,59.66 9.23,59.68 9.54,59.75 Z
           M 120.76,59.87
           C 120.32,61.40 120.10,62.16 119.66,63.68
             119.62,63.73 119.53,63.78 119.18,63.90
             119.65,62.33 119.88,61.54 120.35,59.97
             120.67,59.90 120.76,59.87 120.76,59.87 Z
           M 64.15,66.63
           C 80.46,66.28 96.58,65.04 112.58,61.71
             112.58,61.71 106.01,63.73 91.84,65.42
             77.68,67.12 64.15,66.63 64.15,66.63
             64.15,66.63 64.15,66.63 64.15,66.63 Z
           M 15.44,64.72
           C 15.44,64.72 16.49,68.62 16.49,68.62
             16.49,68.62 16.14,67.74 15.85,66.65
             15.55,65.55 15.44,64.72 15.44,64.72
             15.44,64.72 15.44,64.72 15.44,64.72 Z
           M 107.66,66.65
           C 107.23,68.31 107.01,69.15 106.57,70.81
             106.57,70.81 106.63,69.95 106.93,68.77
             107.24,67.60 107.66,66.65 107.66,66.65
             107.66,66.65 107.66,66.65 107.66,66.65 Z
           M 120.35,59.99
           C 119.89,61.55 119.65,62.33 119.19,63.90
             119.19,63.90 119.40,63.07 119.73,61.97
             120.05,60.86 120.35,59.99 120.35,59.99
             120.35,59.99 120.35,59.99 120.35,59.99 Z
           M 32.70,64.00
           C 32.70,64.00 33.20,68.10 33.20,68.10
             33.20,68.10 32.87,67.18 32.72,66.03
             32.58,64.87 32.70,64.00 32.70,64.00 Z
           M 86.63,65.62
           C 86.36,67.27 86.23,68.10 85.96,69.75
             85.96,69.75 85.84,68.88 86.03,67.72
             86.22,66.55 86.63,65.62 86.63,65.62
             86.63,65.62 86.63,65.62 86.63,65.62 Z
           M 57.64,70.55
           C 57.57,72.18 57.54,72.99 57.47,74.62
             57.47,74.62 57.24,73.73 57.29,72.58
             57.33,71.43 57.64,70.55 57.64,70.55 Z
           M 10.65,63.30
           C 10.21,61.88 9.99,61.17 9.54,59.75
             9.54,59.75 9.82,60.52 10.13,61.53
             10.44,62.53 10.65,63.30 10.65,63.30
             10.65,63.30 10.65,63.30 10.65,63.30 Z
           M 22.65,70.16
           C 22.30,68.55 22.13,67.74 21.78,66.12
             21.78,66.12 22.14,67.03 22.38,68.16
             22.63,69.31 22.65,70.16 22.65,70.16 Z
           M 113.03,69.35
           C 113.50,67.71 113.74,66.89 114.22,65.25
             114.22,65.25 114.09,66.11 113.76,67.26
             113.41,68.42 113.03,69.35 113.03,69.35
             113.03,69.35 113.03,69.35 113.03,69.35 Z
           M 96.48,68.50
           C 96.83,66.83 97.00,66.00 97.35,64.34
             97.35,64.34 97.40,65.20 97.15,66.38
             96.91,67.55 96.48,68.50 96.48,68.50
             96.48,68.50 96.48,68.50 96.48,68.50 Z
           M 69.10,74.80
           C 69.26,73.17 69.34,72.35 69.50,70.72
             69.50,70.72 69.70,71.60 69.59,72.75
             69.47,73.89 69.10,74.80 69.10,74.80
             69.10,74.80 69.10,74.80 69.10,74.80 Z
           M 43.39,69.42
           C 43.31,67.78 43.28,66.96 43.20,65.33
             43.20,65.33 43.50,66.24 43.55,67.39
             43.60,68.55 43.39,69.42 43.39,69.42
             43.39,69.42 43.39,69.42 43.39,69.42 Z
           M 17.15,61.34
           C 32.76,64.36 48.27,65.94 64.15,66.62
             64.15,66.62 51.39,66.80 37.60,65.03
             23.82,63.28 17.15,61.34 17.15,61.34
             17.15,61.34 17.15,61.34 17.15,61.34 Z
           M 91.04,69.22
           C 100.74,67.75 110.29,66.53 119.67,63.69
             119.67,63.69 119.92,64.40 111.40,66.24
             102.87,68.09 91.04,69.22 91.04,69.22
             91.04,69.22 91.04,69.22 91.04,69.22 Z
           M 37.82,68.76
           C 55.73,71.03 73.11,70.88 91.04,69.21
             91.04,69.21 79.40,71.29 63.96,71.10
             48.51,70.91 37.82,68.76 37.82,68.76
             37.82,68.76 37.82,68.76 37.82,68.76 Z
           M 10.22,63.04
           C 19.15,66.11 28.52,67.25 37.82,68.76
             37.82,68.76 26.60,67.60 18.30,65.73
             10.00,63.85 10.22,63.04 10.22,63.04
             10.22,63.04 10.22,63.04 10.22,63.04 Z
           M 43.20,65.32
           C 43.28,66.96 43.32,67.79 43.39,69.43
             39.10,68.96 37.03,68.69 33.20,68.11
             33.00,66.46 32.90,65.64 32.70,63.99
             36.65,64.57 38.78,64.85 43.20,65.32
             43.20,65.32 43.20,65.32 43.20,65.32 Z
           M 97.35,64.32
           C 97.00,65.99 96.83,66.83 96.48,68.50
             92.54,69.06 90.41,69.33 85.96,69.75
             86.23,68.09 86.36,67.26 86.63,65.60
             91.16,65.16 93.34,64.89 97.35,64.32 Z
           M 114.21,65.24
           C 113.73,66.89 113.50,67.71 113.02,69.36
             110.88,69.90 109.56,70.21 106.56,70.81
             107.00,69.14 107.21,68.30 107.65,66.63
             110.71,66.04 112.05,65.75 114.21,65.24
             114.21,65.24 114.21,65.24 114.21,65.24 Z
           M 69.49,70.71
           C 69.49,70.71 69.09,74.81 69.09,74.81
             64.29,74.88 61.99,74.84 57.46,74.63
             57.53,72.99 57.56,72.17 57.63,70.54
             62.27,70.74 64.61,70.79 69.49,70.71
             69.49,70.71 69.49,70.71 69.49,70.71 Z
           M 21.78,66.11
           C 22.13,67.73 22.30,68.54 22.65,70.17
             19.79,69.54 18.54,69.22 16.49,68.63
             16.07,67.06 15.85,66.28 15.43,64.71
             17.54,65.22 18.83,65.52 21.78,66.11 Z
           M 110.27,70.02
           C 94.91,73.56 79.27,74.53 63.56,74.81
             63.68,73.17 63.74,72.36 63.86,70.72
             79.87,70.41 95.75,69.30 111.43,65.87
             110.97,67.53 110.73,68.36 110.27,70.02
             110.27,70.02 110.27,70.02 110.27,70.02 Z
           M 63.56,74.81
           C 48.53,74.06 33.79,72.89 19.12,69.33
             18.73,67.73 18.53,66.93 18.14,65.33
             33.28,68.64 48.40,69.95 63.86,70.71
             63.74,72.36 63.68,73.17 63.56,74.81
             63.56,74.81 63.56,74.81 63.56,74.81 Z
           M 37.46,64.64
           C 55.87,66.61 73.38,66.79 91.80,65.04
             91.49,66.71 91.34,67.54 91.03,69.21
             73.10,70.88 55.72,71.03 37.81,68.76
             37.67,67.11 37.60,66.29 37.46,64.64
             37.46,64.64 37.46,64.64 37.46,64.64 Z
           M 119.66,63.69
           C 110.28,66.53 100.74,67.74 91.03,69.22
             91.34,67.55 91.49,66.72 91.80,65.05
             101.60,63.58 111.15,62.16 120.76,59.88
             120.32,61.40 120.10,62.16 119.66,63.69
             119.66,63.69 119.66,63.69 119.66,63.69 Z
           M 37.82,68.76
           C 28.52,67.25 19.15,66.11 10.22,63.04
             9.80,61.69 9.59,61.02 9.17,59.67
             18.58,61.68 27.93,63.17 37.47,64.64
             37.60,66.29 37.67,67.11 37.82,68.76
             37.82,68.76 37.82,68.76 37.82,68.76 Z
           M 19.12,69.33
           C 13.41,67.89 11.52,67.15 11.27,66.41
             10.85,65.06 10.64,64.39 10.22,63.04
             10.32,63.39 12.26,64.02 18.14,65.34
             18.53,66.94 18.73,67.74 19.12,69.33 Z
           M 118.57,67.50
           C 118.24,67.97 116.26,68.66 110.28,70.03
             110.74,68.37 110.97,67.54 111.43,65.87
             117.50,64.56 119.50,63.93 119.67,63.69
             119.23,65.21 119.01,65.97 118.57,67.50
             118.57,67.50 118.57,67.50 118.57,67.50 Z
           M 114.97,67.40
           C 115.09,67.35 115.22,67.31 115.34,67.27
             115.39,67.26 115.45,67.24 115.50,67.23
             115.62,66.59 115.13,66.25 114.15,66.44
             114.76,66.53 115.06,66.88 114.97,67.40
             114.97,67.40 114.97,67.40 114.97,67.40 Z
           M 114.01,66.48
           C 114.06,66.47 114.10,66.46 114.15,66.45
             113.98,66.43 113.79,66.43 113.58,66.45
             113.58,66.50 113.58,66.56 113.57,66.62
             113.72,66.56 113.86,66.52 114.01,66.48 Z
           M 9.16,59.68
           C 9.16,59.68 23.88,106.67 23.88,106.67
             29.44,121.68 40.60,123.42 65.64,123.67
             90.68,123.92 104.63,118.79 106.98,107.83
             106.98,107.83 120.77,59.87 120.77,59.87
             120.77,59.87 94.71,66.67 66.17,66.64
             37.56,66.61 9.02,59.54 9.16,59.68
             9.16,59.68 9.16,59.68 9.16,59.68 Z
           M 90.92,65.47
           C 89.60,64.86 89.01,63.30 89.62,61.98
             90.30,60.50 91.32,58.33 92.59,55.81
             92.60,59.24 93.05,62.91 91.92,65.70
             91.59,65.69 91.24,65.62 90.92,65.47
             90.92,65.47 90.92,65.47 90.92,65.47 Z
           M 92.59,55.81
           C 93.69,53.63 94.99,51.19 96.41,48.70
             96.47,49.12 96.57,49.52 96.75,49.89
             97.18,52.89 97.25,56.23 96.70,59.35
             95.93,60.89 95.17,62.50 94.40,64.16
             93.96,65.13 93.00,65.70 92.00,65.70
             91.97,65.70 91.94,65.69 91.91,65.69
             93.05,62.92 92.60,59.25 92.59,55.81 Z
           M 99.35,43.85
           C 99.85,43.06 100.37,42.29 100.89,41.53
             100.92,41.51 100.94,41.48 100.97,41.46
             100.94,41.48 100.92,41.51 100.89,41.53
             101.62,40.46 102.37,39.43 103.14,38.45
             103.33,40.59 103.96,42.77 104.38,44.88
             103.67,44.91 103.07,44.68 103.07,43.57
             103.07,44.69 103.66,44.91 104.38,44.88
             104.43,45.13 104.49,45.39 104.53,45.64
             104.08,46.32 103.61,47.04 103.15,47.78
             103.15,47.78 100.96,47.78 100.96,47.78
             100.96,47.78 103.15,47.78 103.15,47.78
             102.31,49.12 101.45,50.54 100.57,52.07
             99.81,49.35 98.59,46.35 99.35,43.85
             99.35,43.85 99.35,43.85 99.35,43.85 Z
           M 107.31,33.78
           C 107.36,36.59 107.61,39.39 107.12,42.01
             106.48,42.86 105.81,43.80 105.13,44.79
             104.88,44.84 104.63,44.87 104.39,44.88
             103.97,42.77 103.34,40.59 103.15,38.45
             104.51,36.69 105.90,35.09 107.31,33.78
             107.31,33.78 107.31,33.78 107.31,33.78 Z
           M 104.54,45.65
           C 104.50,45.40 104.44,45.14 104.39,44.89
             104.63,44.88 104.88,44.84 105.13,44.80
             104.93,45.08 104.74,45.35 104.54,45.65
             104.54,45.65 104.54,45.65 104.54,45.65 Z
           M 107.31,33.78
           C 109.07,32.12 110.85,30.92 112.57,30.37
             113.03,32.17 113.09,34.16 112.74,36.09
             112.58,36.20 112.42,36.32 112.25,36.45
             112.09,36.45 111.93,36.45 111.78,36.44
             111.78,36.44 111.53,36.19 111.53,36.19
             111.53,36.19 111.78,36.44 111.78,36.44
             110.82,36.40 109.90,36.10 109.42,35.13
             109.90,36.09 110.82,36.39 111.78,36.44
             111.78,36.44 112.00,36.66 112.00,36.66
             110.62,37.78 108.97,39.57 107.13,42.01
             107.61,39.38 107.35,36.59 107.31,33.78
             107.31,33.78 107.31,33.78 107.31,33.78 Z
           M 112.24,36.45
           C 112.16,36.51 112.07,36.59 111.98,36.66
             111.98,36.66 111.76,36.44 111.76,36.44
             111.93,36.45 112.09,36.45 112.24,36.45 Z
           M 115.40,35.88
           C 115.33,35.77 115.27,35.65 115.20,35.56
             115.05,35.38 114.93,35.28 114.52,35.31
             114.03,35.34 113.43,35.63 112.74,36.09
             113.09,34.16 113.04,32.16 112.57,30.37
             113.10,30.20 113.62,30.09 114.14,30.05
             115.01,29.99 115.83,30.10 116.58,30.35
             117.63,32.69 117.39,34.83 115.40,35.88
             115.40,35.88 115.40,35.88 115.40,35.88 Z
           M 116.25,39.52
           C 116.14,37.92 115.87,36.65 115.40,35.88
             117.39,34.83 117.63,32.69 116.58,30.35
             117.59,30.69 118.49,31.29 119.22,32.17
             120.04,33.15 120.65,34.46 121.04,36.12
             120.65,37.23 119.95,38.30 118.89,39.36
             117.92,39.68 117.05,39.70 116.25,39.52 Z
           M 116.25,39.52
           C 117.05,39.70 117.93,39.68 118.90,39.35
             119.97,38.28 120.67,37.21 121.05,36.11
             121.50,38.02 121.66,40.40 121.54,43.25
             119.96,44.50 117.99,44.76 116.20,44.26
             116.20,44.26 116.20,44.24 116.20,44.24
             116.38,44.01 116.58,43.78 116.79,43.57
             116.58,43.78 116.38,44.01 116.20,44.24
             116.31,42.50 116.34,40.88 116.25,39.52
             116.25,39.52 116.25,39.52 116.25,39.52 Z
           M 120.90,49.77
           C 119.09,49.54 117.39,48.19 115.99,46.64
             116.08,45.83 116.15,45.03 116.20,44.26
             117.99,44.76 119.96,44.50 121.54,43.25
             121.48,44.63 121.36,46.11 121.17,47.72
             121.09,48.42 121.00,49.11 120.90,49.77
             120.90,49.77 120.90,49.77 120.90,49.77 Z
           M 114.23,56.64
           C 114.53,55.43 114.79,54.18 115.03,52.91
             115.79,55.12 117.28,57.03 119.32,57.96
             118.94,59.33 117.54,60.17 116.15,59.83
             114.74,59.48 113.88,58.06 114.23,56.64 Z
           M 115.03,52.92
           C 115.21,51.98 115.38,51.04 115.52,50.10
             116.55,51.86 118.24,53.27 120.19,53.98
             119.75,56.26 119.37,57.80 119.35,57.91
             119.34,57.93 119.33,57.95 119.33,57.97
             117.28,57.03 115.79,55.12 115.03,52.92
             115.03,52.92 115.03,52.92 115.03,52.92 Z
           M 115.52,50.10
           C 115.70,48.93 115.86,47.77 115.98,46.64
             117.39,48.19 119.08,49.54 120.89,49.77
             120.67,51.32 120.41,52.75 120.18,53.97
             118.25,53.26 116.55,51.85 115.52,50.10
             115.52,50.10 115.52,50.10 115.52,50.10 Z
           M 96.76,49.90
           C 96.58,49.53 96.48,49.13 96.42,48.71
             97.35,47.09 98.33,45.45 99.36,43.85
             98.60,46.35 99.82,49.35 100.59,52.08
             99.31,54.32 98.01,56.75 96.71,59.36
             97.25,56.23 97.19,52.89 96.76,49.90 Z" />
</svg>
